<?xml version="1.0" encoding="UTF-8" standalone="no"?>
<svg
   version="1.1"
   width="1172"
   height="738"
   id="svg253"
   sodipodi:docname="act_prelu.svg"
   inkscape:version="1.2.2 (b0a8486541, 2022-12-01)"
   xmlns:inkscape="http://www.inkscape.org/namespaces/inkscape"
   xmlns:sodipodi="http://sodipodi.sourceforge.net/DTD/sodipodi-0.dtd"
   xmlns="http://www.w3.org/2000/svg"
   xmlns:svg="http://www.w3.org/2000/svg">
  <sodipodi:namedview
     id="namedview255"
     pagecolor="#ffffff"
     bordercolor="#666666"
     borderopacity="1.0"
     inkscape:showpageshadow="2"
     inkscape:pageopacity="0.0"
     inkscape:pagecheckerboard="0"
     inkscape:deskcolor="#d1d1d1"
     showgrid="false"
     inkscape:zoom="0.36276455"
     inkscape:cx="1000.649"
     inkscape:cy="442.43573"
     inkscape:window-width="1536"
     inkscape:window-height="792"
     inkscape:window-x="0"
     inkscape:window-y="0"
     inkscape:window-maximized="1"
     inkscape:current-layer="svg253" />
  <defs
     id="defs5">
    <marker
       style="overflow:visible"
       id="Arrow2"
       refX="0"
       refY="0"
       orient="auto-start-reverse"
       inkscape:stockid="Arrow2"
       markerWidth="7.6999998"
       markerHeight="5.5999999"
       viewBox="0 0 7.7 5.6"
       inkscape:isstock="true"
       inkscape:collect="always"
       preserveAspectRatio="xMidYMid">
      <path
         transform="scale(0.7)"
         d="M -2,-4 9,0 -2,4 c 2,-2.33 2,-5.66 0,-8 z"
         style="fill:context-stroke;fill-rule:evenodd;stroke:none"
         id="arrow2L" />
    </marker>
    <clipPath
       clipPathUnits="userSpaceOnUse"
       id="clipPath797">
      <g
         id="g803">
        <g
           id="g801">
          <path
             fill="none"
             stroke="none"
             d="M 0,0 H 1172 V 738 H 0 Z"
             id="path799" />
        </g>
      </g>
    </clipPath>
    <clipPath
       clipPathUnits="userSpaceOnUse"
       id="clipPath805">
      <g
         id="g811">
        <g
           id="g809">
          <path
             fill="none"
             stroke="none"
             d="M 0,0 H 1172 V 738 H 0 Z"
             id="path807" />
        </g>
      </g>
    </clipPath>
    <clipPath
       clipPathUnits="userSpaceOnUse"
       id="clipPath813">
      <g
         id="g819">
        <g
           id="g817">
          <path
             fill="none"
             stroke="none"
             d="M 0,0 H 1172 V 738 H 0 Z"
             id="path815" />
        </g>
      </g>
    </clipPath>
    <clipPath
       clipPathUnits="userSpaceOnUse"
       id="clipPath821">
      <g
         id="g827">
        <g
           id="g825">
          <path
             fill="none"
             stroke="none"
             d="M 0,0 H 1172 V 738 H 0 Z"
             id="path823" />
        </g>
      </g>
    </clipPath>
    <clipPath
       clipPathUnits="userSpaceOnUse"
       id="clipPath829">
      <g
         id="g835">
        <g
           id="g833">
          <path
             fill="none"
             stroke="none"
             d="M 0,0 H 1172 V 738 H 0 Z"
             id="path831" />
        </g>
      </g>
    </clipPath>
    <clipPath
       clipPathUnits="userSpaceOnUse"
       id="clipPath837">
      <g
         id="g843">
        <g
           id="g841">
          <path
             fill="none"
             stroke="none"
             d="M 0,0 H 1172 V 738 H 0 Z"
             id="path839" />
        </g>
      </g>
    </clipPath>
    <clipPath
       clipPathUnits="userSpaceOnUse"
       id="clipPath845">
      <g
         id="g851">
        <g
           id="g849">
          <path
             fill="none"
             stroke="none"
             d="M 0,0 H 1172 V 738 H 0 Z"
             id="path847" />
        </g>
      </g>
    </clipPath>
    <clipPath
       clipPathUnits="userSpaceOnUse"
       id="clipPath853">
      <g
         id="g859">
        <g
           id="g857">
          <path
             fill="none"
             stroke="none"
             d="M 0,0 H 1172 V 738 H 0 Z"
             id="path855" />
        </g>
      </g>
    </clipPath>
    <clipPath
       clipPathUnits="userSpaceOnUse"
       id="clipPath861">
      <g
         id="g867">
        <g
           id="g865">
          <path
             fill="none"
             stroke="none"
             d="M 0,0 H 1172 V 738 H 0 Z"
             id="path863" />
        </g>
      </g>
    </clipPath>
    <clipPath
       clipPathUnits="userSpaceOnUse"
       id="clipPath869">
      <g
         id="g875">
        <g
           id="g873">
          <path
             fill="none"
             stroke="none"
             d="M 0,0 H 1172 V 738 H 0 Z"
             id="path871" />
        </g>
      </g>
    </clipPath>
    <clipPath
       clipPathUnits="userSpaceOnUse"
       id="clipPath877">
      <g
         id="g883">
        <g
           id="g881">
          <path
             fill="none"
             stroke="none"
             d="M 0,0 H 1172 V 738 H 0 Z"
             id="path879" />
        </g>
      </g>
    </clipPath>
  </defs>
  <path
     fill="none"
     stroke="#c0c0c0"
     paint-order="fill stroke markers"
     d="M 1,0 V 738 M 1,0 V 738 M 57,0 V 738 M 112,0 V 738 M 167,0 V 738 M 223,0 V 738 M 278,0 V 738 M 334,0 V 738 M 389,0 V 738 M 445,0 V 738 M 500,0 V 738 M 611,0 V 738 M 666,0 V 738 M 722,0 V 738 M 777,0 V 738 M 832,0 V 738 M 888,0 V 738 M 943,0 V 738 M 999,0 V 738 M 1054,0 V 738 M 1109,0 V 738 M 1165,0 v 738"
     stroke-opacity="1"
     stroke-linecap="round"
     stroke-linejoin="round"
     stroke-miterlimit="10"
     stroke-width="2"
     id="path9"
     clip-path="url(#clipPath869)" />
  <path
     fill="none"
     stroke="#c0c0c0"
     paint-order="fill stroke markers"
     d=""
     stroke-opacity="0.235294"
     stroke-linecap="round"
     stroke-linejoin="round"
     stroke-miterlimit="10"
     stroke-width="2"
     id="path11" />
  <path
     fill="none"
     stroke="#c0c0c0"
     paint-order="fill stroke markers"
     d="M 0,46 H 1172 M 0,46 H 1172 M 0,93 H 1172 M 0,140 H 1172 M 0,187 H 1172 M 0,234 H 1172 M 0,280 H 1172 M 0,327 H 1172 M 0,421 H 1172 M 0,468 H 1172 M 0,515 H 1172 M 0,562 H 1172 M 0,608 H 1172 M 0,655 H 1172 M 0,702 h 1172"
     stroke-opacity="1"
     stroke-linecap="round"
     stroke-linejoin="round"
     stroke-miterlimit="10"
     stroke-width="2"
     id="path13"
     clip-path="url(#clipPath861)" />
  <path
     fill="none"
     stroke="#c0c0c0"
     paint-order="fill stroke markers"
     d=""
     stroke-opacity="0.235294"
     stroke-linecap="round"
     stroke-linejoin="round"
     stroke-miterlimit="10"
     stroke-width="2"
     id="path15" />
  <path
     fill="none"
     stroke="#252525"
     paint-order="fill stroke markers"
     d="M -16.628832,374.68756 H 1152.3712"
     stroke-opacity="1"
     stroke-miterlimit="10"
     stroke-width="2"
     id="path23"
     clip-path="url(#clipPath829)"
     style="marker-end:url(#Arrow2)"
     sodipodi:nodetypes="cc" />
  <text
     x="33"
     y="394"
     id="text33"
     style="font-style:normal;font-variant:normal;font-weight:bold;font-stretch:normal;font-size:24px;font-family:'Crimson Text';-inkscape-font-specification:'Crimson Text, Bold';font-variant-ligatures:normal;font-variant-caps:normal;font-variant-numeric:normal;font-variant-east-asian:normal;dominant-baseline:alphabetic;text-anchor:start;fill:#252525;fill-opacity:1;stroke:none">–4.5</text>
  <text
     x="95"
     y="394"
     id="text39"
     style="font-style:normal;font-variant:normal;font-weight:bold;font-stretch:normal;font-size:24px;font-family:'Crimson Text';-inkscape-font-specification:'Crimson Text, Bold';font-variant-ligatures:normal;font-variant-caps:normal;font-variant-numeric:normal;font-variant-east-asian:normal;dominant-baseline:alphabetic;text-anchor:start;fill:#252525;fill-opacity:1;stroke:none">–4</text>
  <text
     x="142"
     y="394"
     id="text45"
     style="font-style:normal;font-variant:normal;font-weight:bold;font-stretch:normal;font-size:24px;font-family:'Crimson Text';-inkscape-font-specification:'Crimson Text, Bold';font-variant-ligatures:normal;font-variant-caps:normal;font-variant-numeric:normal;font-variant-east-asian:normal;dominant-baseline:alphabetic;text-anchor:start;fill:#252525;fill-opacity:1;stroke:none">–3.5</text>
  <text
     x="206"
     y="394"
     id="text51"
     style="font-style:normal;font-variant:normal;font-weight:bold;font-stretch:normal;font-size:24px;font-family:'Crimson Text';-inkscape-font-specification:'Crimson Text, Bold';font-variant-ligatures:normal;font-variant-caps:normal;font-variant-numeric:normal;font-variant-east-asian:normal;dominant-baseline:alphabetic;text-anchor:start;fill:#252525;fill-opacity:1;stroke:none">–3</text>
  <text
     x="252"
     y="394"
     id="text57"
     style="font-style:normal;font-variant:normal;font-weight:bold;font-stretch:normal;font-size:24px;font-family:'Crimson Text';-inkscape-font-specification:'Crimson Text, Bold';font-variant-ligatures:normal;font-variant-caps:normal;font-variant-numeric:normal;font-variant-east-asian:normal;dominant-baseline:alphabetic;text-anchor:start;fill:#252525;fill-opacity:1;stroke:none">–2.5</text>
  <text
     x="319"
     y="394"
     id="text63"
     style="font-style:normal;font-variant:normal;font-weight:bold;font-stretch:normal;font-size:24px;font-family:'Crimson Text';-inkscape-font-specification:'Crimson Text, Bold';font-variant-ligatures:normal;font-variant-caps:normal;font-variant-numeric:normal;font-variant-east-asian:normal;dominant-baseline:alphabetic;text-anchor:start;fill:#252525;fill-opacity:1;stroke:none">–2</text>
  <text
     x="365"
     y="394"
     id="text69"
     style="font-style:normal;font-variant:normal;font-weight:bold;font-stretch:normal;font-size:24px;font-family:'Crimson Text';-inkscape-font-specification:'Crimson Text, Bold';font-variant-ligatures:normal;font-variant-caps:normal;font-variant-numeric:normal;font-variant-east-asian:normal;dominant-baseline:alphabetic;text-anchor:start;fill:#252525;fill-opacity:1;stroke:none">–1.5</text>
  <text
     x="432"
     y="394"
     id="text75"
     style="font-style:normal;font-variant:normal;font-weight:bold;font-stretch:normal;font-size:24px;font-family:'Crimson Text';-inkscape-font-specification:'Crimson Text, Bold';font-variant-ligatures:normal;font-variant-caps:normal;font-variant-numeric:normal;font-variant-east-asian:normal;dominant-baseline:alphabetic;text-anchor:start;fill:#252525;fill-opacity:1;stroke:none">–1</text>
  <text
     x="478"
     y="394"
     id="text81"
     style="font-style:normal;font-variant:normal;font-weight:bold;font-stretch:normal;font-size:24px;font-family:'Crimson Text';-inkscape-font-specification:'Crimson Text, Bold';font-variant-ligatures:normal;font-variant-caps:normal;font-variant-numeric:normal;font-variant-east-asian:normal;dominant-baseline:alphabetic;text-anchor:start;fill:#252525;fill-opacity:1;stroke:none">–0.5</text>
  <text
     x="598"
     y="394"
     id="text87"
     style="font-style:normal;font-variant:normal;font-weight:bold;font-stretch:normal;font-size:24px;font-family:'Crimson Text';-inkscape-font-specification:'Crimson Text, Bold';font-variant-ligatures:normal;font-variant-caps:normal;font-variant-numeric:normal;font-variant-east-asian:normal;dominant-baseline:alphabetic;text-anchor:start;fill:#252525;fill-opacity:1;stroke:none">0.5</text>
  <text
     x="661"
     y="394"
     id="text93"
     style="font-style:normal;font-variant:normal;font-weight:bold;font-stretch:normal;font-size:24px;font-family:'Crimson Text';-inkscape-font-specification:'Crimson Text, Bold';font-variant-ligatures:normal;font-variant-caps:normal;font-variant-numeric:normal;font-variant-east-asian:normal;dominant-baseline:alphabetic;text-anchor:start;fill:#252525;fill-opacity:1;stroke:none">1</text>
  <text
     x="709"
     y="394"
     id="text99"
     style="font-style:normal;font-variant:normal;font-weight:bold;font-stretch:normal;font-size:24px;font-family:'Crimson Text';-inkscape-font-specification:'Crimson Text, Bold';font-variant-ligatures:normal;font-variant-caps:normal;font-variant-numeric:normal;font-variant-east-asian:normal;dominant-baseline:alphabetic;text-anchor:start;fill:#252525;fill-opacity:1;stroke:none">1.5</text>
  <text
     x="772"
     y="394"
     id="text105"
     style="font-style:normal;font-variant:normal;font-weight:bold;font-stretch:normal;font-size:24px;font-family:'Crimson Text';-inkscape-font-specification:'Crimson Text, Bold';font-variant-ligatures:normal;font-variant-caps:normal;font-variant-numeric:normal;font-variant-east-asian:normal;dominant-baseline:alphabetic;text-anchor:start;fill:#252525;fill-opacity:1;stroke:none">2</text>
  <text
     x="820"
     y="394"
     id="text111"
     style="font-style:normal;font-variant:normal;font-weight:bold;font-stretch:normal;font-size:24px;font-family:'Crimson Text';-inkscape-font-specification:'Crimson Text, Bold';font-variant-ligatures:normal;font-variant-caps:normal;font-variant-numeric:normal;font-variant-east-asian:normal;dominant-baseline:alphabetic;text-anchor:start;fill:#252525;fill-opacity:1;stroke:none">2.5</text>
  <text
     x="883"
     y="394"
     id="text117"
     style="font-style:normal;font-variant:normal;font-weight:bold;font-stretch:normal;font-size:24px;font-family:'Crimson Text';-inkscape-font-specification:'Crimson Text, Bold';font-variant-ligatures:normal;font-variant-caps:normal;font-variant-numeric:normal;font-variant-east-asian:normal;dominant-baseline:alphabetic;text-anchor:start;fill:#252525;fill-opacity:1;stroke:none">3</text>
  <text
     x="931"
     y="394"
     id="text123"
     style="font-style:normal;font-variant:normal;font-weight:bold;font-stretch:normal;font-size:24px;font-family:'Crimson Text';-inkscape-font-specification:'Crimson Text, Bold';font-variant-ligatures:normal;font-variant-caps:normal;font-variant-numeric:normal;font-variant-east-asian:normal;dominant-baseline:alphabetic;text-anchor:start;fill:#252525;fill-opacity:1;stroke:none">3.5</text>
  <text
     x="993"
     y="394"
     id="text129"
     style="font-style:normal;font-variant:normal;font-weight:bold;font-stretch:normal;font-size:24px;font-family:'Crimson Text';-inkscape-font-specification:'Crimson Text, Bold';font-variant-ligatures:normal;font-variant-caps:normal;font-variant-numeric:normal;font-variant-east-asian:normal;dominant-baseline:alphabetic;text-anchor:start;fill:#252525;fill-opacity:1;stroke:none">4</text>
  <text
     x="1042"
     y="394"
     id="text135"
     style="font-style:normal;font-variant:normal;font-weight:bold;font-stretch:normal;font-size:24px;font-family:'Crimson Text';-inkscape-font-specification:'Crimson Text, Bold';font-variant-ligatures:normal;font-variant-caps:normal;font-variant-numeric:normal;font-variant-east-asian:normal;dominant-baseline:alphabetic;text-anchor:start;fill:#252525;fill-opacity:1;stroke:none">4.5</text>
  <text
     x="1104"
     y="394"
     id="text141"
     style="font-style:normal;font-variant:normal;font-weight:bold;font-stretch:normal;font-size:24px;font-family:'Crimson Text';-inkscape-font-specification:'Crimson Text, Bold';font-variant-ligatures:normal;font-variant-caps:normal;font-variant-numeric:normal;font-variant-east-asian:normal;dominant-baseline:alphabetic;text-anchor:start;fill:#252525;fill-opacity:1;stroke:none">5</text>
  <text
     x="513"
     y="707"
     id="text147"
     style="font-style:normal;font-variant:normal;font-weight:bold;font-stretch:normal;font-size:24px;font-family:'Crimson Text';-inkscape-font-specification:'Crimson Text, Bold';font-variant-ligatures:normal;font-variant-caps:normal;font-variant-numeric:normal;font-variant-east-asian:normal;dominant-baseline:alphabetic;text-anchor:start;fill:#252525;fill-opacity:1;stroke:none">–1.4</text>
  <text
     x="513"
     y="660"
     id="text153"
     style="font-style:normal;font-variant:normal;font-weight:bold;font-stretch:normal;font-size:24px;font-family:'Crimson Text';-inkscape-font-specification:'Crimson Text, Bold';font-variant-ligatures:normal;font-variant-caps:normal;font-variant-numeric:normal;font-variant-east-asian:normal;dominant-baseline:alphabetic;text-anchor:start;fill:#252525;fill-opacity:1;stroke:none">–1.2</text>
  <text
     x="523"
     y="613"
     id="text159"
     style="font-style:normal;font-variant:normal;font-weight:bold;font-stretch:normal;font-size:24px;font-family:'Crimson Text';-inkscape-font-specification:'Crimson Text, Bold';font-variant-ligatures:normal;font-variant-caps:normal;font-variant-numeric:normal;font-variant-east-asian:normal;dominant-baseline:alphabetic;text-anchor:start;fill:#252525;fill-opacity:1;stroke:none">–1</text>
  <text
     x="513"
     y="566"
     id="text165"
     style="font-style:normal;font-variant:normal;font-weight:bold;font-stretch:normal;font-size:24px;font-family:'Crimson Text';-inkscape-font-specification:'Crimson Text, Bold';font-variant-ligatures:normal;font-variant-caps:normal;font-variant-numeric:normal;font-variant-east-asian:normal;dominant-baseline:alphabetic;text-anchor:start;fill:#252525;fill-opacity:1;stroke:none">–0.8</text>
  <text
     x="513"
     y="519"
     id="text171"
     style="font-style:normal;font-variant:normal;font-weight:bold;font-stretch:normal;font-size:24px;font-family:'Crimson Text';-inkscape-font-specification:'Crimson Text, Bold';font-variant-ligatures:normal;font-variant-caps:normal;font-variant-numeric:normal;font-variant-east-asian:normal;dominant-baseline:alphabetic;text-anchor:start;fill:#252525;fill-opacity:1;stroke:none">–0.6</text>
  <text
     x="513"
     y="472"
     id="text177"
     style="font-style:normal;font-variant:normal;font-weight:bold;font-stretch:normal;font-size:24px;font-family:'Crimson Text';-inkscape-font-specification:'Crimson Text, Bold';font-variant-ligatures:normal;font-variant-caps:normal;font-variant-numeric:normal;font-variant-east-asian:normal;dominant-baseline:alphabetic;text-anchor:start;fill:#252525;fill-opacity:1;stroke:none">–0.4</text>
  <text
     x="513"
     y="426"
     id="text183"
     style="font-style:normal;font-variant:normal;font-weight:bold;font-stretch:normal;font-size:24px;font-family:'Crimson Text';-inkscape-font-specification:'Crimson Text, Bold';font-variant-ligatures:normal;font-variant-caps:normal;font-variant-numeric:normal;font-variant-east-asian:normal;dominant-baseline:alphabetic;text-anchor:start;fill:#252525;fill-opacity:1;stroke:none">–0.2</text>
  <text
     x="523"
     y="332"
     id="text189"
     style="font-style:normal;font-variant:normal;font-weight:bold;font-stretch:normal;font-size:24px;font-family:'Crimson Text';-inkscape-font-specification:'Crimson Text, Bold';font-variant-ligatures:normal;font-variant-caps:normal;font-variant-numeric:normal;font-variant-east-asian:normal;dominant-baseline:alphabetic;text-anchor:start;fill:#252525;fill-opacity:1;stroke:none">0.2</text>
  <text
     x="523"
     y="285"
     id="text195"
     style="font-style:normal;font-variant:normal;font-weight:bold;font-stretch:normal;font-size:24px;font-family:'Crimson Text';-inkscape-font-specification:'Crimson Text, Bold';font-variant-ligatures:normal;font-variant-caps:normal;font-variant-numeric:normal;font-variant-east-asian:normal;dominant-baseline:alphabetic;text-anchor:start;fill:#252525;fill-opacity:1;stroke:none">0.4</text>
  <text
     x="523"
     y="238"
     id="text201"
     style="font-style:normal;font-variant:normal;font-weight:bold;font-stretch:normal;font-size:24px;font-family:'Crimson Text';-inkscape-font-specification:'Crimson Text, Bold';font-variant-ligatures:normal;font-variant-caps:normal;font-variant-numeric:normal;font-variant-east-asian:normal;dominant-baseline:alphabetic;text-anchor:start;fill:#252525;fill-opacity:1;stroke:none">0.6</text>
  <text
     x="523"
     y="191"
     id="text207"
     style="font-style:normal;font-variant:normal;font-weight:bold;font-stretch:normal;font-size:24px;font-family:'Crimson Text';-inkscape-font-specification:'Crimson Text, Bold';font-variant-ligatures:normal;font-variant-caps:normal;font-variant-numeric:normal;font-variant-east-asian:normal;dominant-baseline:alphabetic;text-anchor:start;fill:#252525;fill-opacity:1;stroke:none">0.8</text>
  <text
     x="533"
     y="144"
     id="text213"
     style="font-style:normal;font-variant:normal;font-weight:bold;font-stretch:normal;font-size:24px;font-family:'Crimson Text';-inkscape-font-specification:'Crimson Text, Bold';font-variant-ligatures:normal;font-variant-caps:normal;font-variant-numeric:normal;font-variant-east-asian:normal;dominant-baseline:alphabetic;text-anchor:start;fill:#252525;fill-opacity:1;stroke:none">1</text>
  <text
     x="523"
     y="97"
     id="text219"
     style="font-style:normal;font-variant:normal;font-weight:bold;font-stretch:normal;font-size:24px;font-family:'Crimson Text';-inkscape-font-specification:'Crimson Text, Bold';font-variant-ligatures:normal;font-variant-caps:normal;font-variant-numeric:normal;font-variant-east-asian:normal;dominant-baseline:alphabetic;text-anchor:start;fill:#252525;fill-opacity:1;stroke:none">1.2</text>
  <text
     x="523"
     y="51"
     id="text225"
     style="font-style:normal;font-variant:normal;font-weight:bold;font-stretch:normal;font-size:24px;font-family:'Crimson Text';-inkscape-font-specification:'Crimson Text, Bold';font-variant-ligatures:normal;font-variant-caps:normal;font-variant-numeric:normal;font-variant-east-asian:normal;dominant-baseline:alphabetic;text-anchor:start;fill:#252525;fill-opacity:1;stroke:none">1.4</text>
  <text
     x="559"
     y="394"
     id="text231"
     style="font-style:normal;font-variant:normal;font-weight:bold;font-stretch:normal;font-size:24px;font-family:'Crimson Text';-inkscape-font-specification:'Crimson Text, Bold';font-variant-ligatures:normal;font-variant-caps:normal;font-variant-numeric:normal;font-variant-east-asian:normal;dominant-baseline:alphabetic;text-anchor:start;fill:#252525;fill-opacity:1;stroke:none">0</text>
  <text
     x="736.8913"
     y="34.883228"
     id="text239"
     style="font-style:italic;font-variant:normal;font-weight:bold;font-stretch:normal;font-size:37.3333px;font-family:'Crimson Text';-inkscape-font-specification:'Crimson Text, Bold Italic';font-variant-ligatures:normal;font-variant-caps:normal;font-variant-numeric:normal;font-variant-east-asian:normal;dominant-baseline:alphabetic;text-anchor:start;fill:#0000ff;fill-opacity:1;stroke:none">f(x)</text>
  <path
     fill="none"
     stroke="#ff0000"
     paint-order="fill stroke markers"
     d="m 0,280.42857 h 4.578125 4.578125 4.578125 4.578125 4.578125 4.578125 4.578125 4.578125 4.578125 4.578125 4.578125 4.578125 4.578125 4.578125 4.578125 4.578125 4.578125 4.578125 4.578125 4.578125 4.578125 4.578125 4.57813 4.57812 4.57813 4.57812 4.57813 4.57812 4.57812 4.57813 4.57813 4.57812 4.57812 4.57813 4.57812 4.57813 4.57812 4.57813 4.57812 4.57813 4.57812 4.57813 4.57812 4.57813 4.57812 4.57813 4.57813 4.57812 4.57812 4.57813 4.57812 4.57813 4.57812 4.57813 4.57812 4.57813 4.57812 4.57813 4.57812 4.57813 4.57812 4.57813 4.57812 4.57813 4.57812 4.57813 4.57812 4.57813 4.57812 4.57813 4.57812 4.57813 4.57812 4.57813 4.57812 4.57813 4.57812 4.57813 4.57812 4.57813 4.57812 4.57813 4.57812 4.57813 4.57812 4.57813 4.57812 4.57813 4.57812 4.57813 4.57812 4.57813 4.57812 4.57813 4.57812 4.57813 4.57812 4.57813 4.57812 4.57813 4.57813 4.57812 4.57812 4.57813 4.57812 4.57813 4.57812 4.57813 4.57812 4.57813 4.57812 4.57813 4.57812 4.57813 4.57812 4.57813 4.57812 4.57813 4.57812 4.57813 4.57812 1.14454 m 0.28613,-140.57143 h 0.0715 0.78687 2.28906 4.57812 4.57813 4.57812 4.57813 4.57812 4.57813 4.57812 4.57813 4.57812 4.57813 4.57812 4.57813 4.57812 4.57813 4.57812 4.57813 4.57812 4.57813 4.57812 4.57813 4.57812 4.57813 4.57812 4.57813 4.57812 4.57813 4.57812 4.57813 4.57812 4.57813 4.57812 4.57813 4.57812 4.57813 4.57812 4.57813 4.57812 4.57813 4.57812 4.57813 4.57812 4.57813 4.57812 4.57813 4.57812 4.57813 4.57812 4.57813 4.57812 4.57813 4.57812 4.57813 4.57812 4.57813 4.57812 4.57813 4.57812 4.57813 4.57812 4.57813 4.57812 4.57813 4.57812 4.57813 4.57812 4.57813 4.57812 4.57813 4.57812 4.57813 4.57812 4.57813 4.57812 4.57813 4.57812 4.57813 4.57812 4.57813 4.57812 4.57813 4.57812 4.57813 4.57812 4.57813 4.57812 4.57813 4.57812 4.57813 4.57812 4.57813 4.57812 4.57813 4.57812 4.57813 4.57812 4.57813 4.57818 4.5781 4.5781 4.5781 4.5782 4.5781 4.5781 4.5782 4.5781 4.5781 4.5781 4.5782 4.5781 4.5781 4.5781 4.5782 4.5781 4.5781 4.5781 4.5782 4.5781 4.5781 4.5781 4.5782 4.5781 4.5781 4.5781 4.5782 4.5781 4.5781 4.5781 4.5782 4.5781 4.5781 4.5781 4.5782 4.5781 4.5781"
     stroke-opacity="1"
     stroke-linejoin="round"
     stroke-miterlimit="10"
     stroke-width="3.5"
     stroke-dasharray="11.5, 8"
     id="path241"
     clip-path="url(#clipPath797)" />
  <text
     x="938.52118"
     y="126.89116"
     id="text247"
     style="font-style:italic;font-variant:normal;font-weight:bold;font-stretch:normal;font-size:37.3333px;font-family:'Crimson Text';-inkscape-font-specification:'Crimson Text, Bold Italic';font-variant-ligatures:normal;font-variant-caps:normal;font-variant-numeric:normal;font-variant-east-asian:normal;dominant-baseline:alphabetic;text-anchor:start;fill:#ff0000;fill-opacity:1;stroke:none">f '(x)</text>
  <path
     fill="none"
     stroke="#252525"
     paint-order="fill stroke markers"
     d="M 555.36364,13.387326 554.89793,736.11339"
     stroke-opacity="1"
     stroke-miterlimit="10"
     stroke-width="2"
     id="path17"
     clip-path="url(#clipPath853)"
     style="marker-start:url(#Arrow2)"
     transform="translate(0,2)"
     sodipodi:nodetypes="cc" />
  <path
     fill="none"
     stroke="#0000ff"
     paint-order="fill stroke markers"
     d="m 119.03125,743.11643 4.57813,-3.87165 4.57812,-3.87164 4.57812,-3.87165 4.57813,-3.87164 4.57813,-3.87165 4.57812,-3.87165 4.57812,-3.87164 4.57813,-3.87165 4.57812,-3.87164 4.57813,-3.87165 4.57812,-3.87164 4.57813,-3.87165 4.57812,-3.87165 4.57813,-3.87164 4.57812,-3.87165 4.57813,-3.87164 4.57812,-3.87165 4.57813,-3.87165 4.57812,-3.87164 4.57813,-3.87165 4.57813,-3.87164 4.57812,-3.87165 4.57812,-3.87164 4.57813,-3.87165 4.57812,-3.87165 4.57813,-3.87164 4.57812,-3.87165 4.57813,-3.87164 4.57812,-3.87165 4.57813,-3.87164 4.57812,-3.87165 4.57813,-3.87165 4.57812,-3.87164 4.57813,-3.87165 4.57812,-3.87164 4.57813,-3.87165 4.57812,-3.87165 4.57813,-3.87164 4.57812,-3.87165 4.57813,-3.87164 4.57812,-3.87165 4.57813,-3.87164 4.57812,-3.87165 4.57813,-3.87165 4.57812,-3.87164 4.57813,-3.87165 4.57812,-3.87164 4.57813,-3.87165 4.57812,-3.87165 4.57813,-3.87164 4.57812,-3.87165 4.57813,-3.87164 4.57812,-3.87165 4.57813,-3.87164 4.57812,-3.87165 4.57813,-3.87165 4.57812,-3.87164 4.57813,-3.87165 4.57812,-3.87164 4.57813,-3.87165 4.57812,-3.87165 4.57813,-3.87164 4.57812,-3.87165 4.57813,-3.87164 4.57812,-3.87165 4.57813,-3.87164 4.57812,-3.87165 4.57813,-3.87165 4.57812,-3.87164 4.57813,-3.87165 4.57812,-3.87164 4.57813,-3.87165 4.57812,-3.87165 4.57813,-3.87164 4.57813,-3.87165 4.57812,-3.87164 4.57812,-3.87165 4.57813,-3.87164 4.57812,-3.87165 4.57813,-3.87165 4.57812,-3.87164 4.57813,-3.87165 4.57812,-3.87164 4.57813,-3.87165 4.57812,-3.87164 4.57813,-3.87165 4.57812,-3.87165 4.57813,-3.87164 4.57812,-3.87165 4.57813,-3.87164 4.57812,-3.87165 4.57813,-3.87165 4.57812,-3.87164 4.57813,-3.87165 4.57812,-3.87164 1.14454,-0.96791 0.4292,-0.60846 0.71533,-1.51236 2.28906,-4.83956 4.57812,-9.67911 4.57813,-9.67912 4.57812,-9.67911 4.57813,-9.67912 4.57812,-9.67911 4.57813,-9.67912 4.57812,-9.67911 4.57813,-9.67911 4.57812,-9.67912 4.57813,-9.67911 4.57812,-9.67912 4.57813,-9.67911 4.57812,-9.67912 4.57813,-9.67911 4.57812,-9.67912 4.57813,-9.67911 4.57812,-9.67912 4.57813,-9.67911 4.57812,-9.67911 4.57813,-9.67912 4.57812,-9.67911 4.57813,-9.67912 4.57812,-9.67911 4.57813,-9.67912 4.57812,-9.67911 4.57813,-9.67912 4.57812,-9.67911 4.57813,-9.679115 4.57812,-9.679115 4.57813,-9.679114 4.57812,-9.679115 4.57813,-9.679114 4.57812,-9.679115 4.57813,-9.679115 4.57812,-9.679114 4.57813,-9.679115 4.57812,-9.6791142 4.57813,-9.67911453 4.57812,-9.67911427"
     stroke-opacity="1"
     stroke-linecap="round"
     stroke-linejoin="round"
     stroke-miterlimit="10"
     stroke-width="3.5"
     id="path233"
     clip-path="url(#clipPath805)" />
</svg>
