<?xml version="1.0" encoding="UTF-8" standalone="no"?>
<svg
   version="1.1"
   width="1172"
   height="738"
   id="svg253"
   sodipodi:docname="act_elu.svg"
   inkscape:version="1.2.2 (b0a8486541, 2022-12-01)"
   xmlns:inkscape="http://www.inkscape.org/namespaces/inkscape"
   xmlns:sodipodi="http://sodipodi.sourceforge.net/DTD/sodipodi-0.dtd"
   xmlns="http://www.w3.org/2000/svg"
   xmlns:svg="http://www.w3.org/2000/svg">
  <sodipodi:namedview
     id="namedview255"
     pagecolor="#ffffff"
     bordercolor="#666666"
     borderopacity="1.0"
     inkscape:showpageshadow="2"
     inkscape:pageopacity="0.0"
     inkscape:pagecheckerboard="0"
     inkscape:deskcolor="#d1d1d1"
     showgrid="false"
     inkscape:zoom="0.57369123"
     inkscape:cx="503.75531"
     inkscape:cy="319.85847"
     inkscape:window-width="1536"
     inkscape:window-height="792"
     inkscape:window-x="0"
     inkscape:window-y="0"
     inkscape:window-maximized="1"
     inkscape:current-layer="svg253" />
  <defs
     id="defs5">
    <marker
       style="overflow:visible"
       id="marker1307"
       refX="0"
       refY="0"
       orient="auto-start-reverse"
       inkscape:stockid="Arrow2"
       markerWidth="7.6999998"
       markerHeight="5.5999999"
       viewBox="0 0 7.7 5.6"
       inkscape:isstock="true"
       inkscape:collect="always"
       preserveAspectRatio="xMidYMid">
      <path
         transform="scale(0.7)"
         d="M -2,-4 9,0 -2,4 c 2,-2.33 2,-5.66 0,-8 z"
         style="fill:context-stroke;fill-rule:evenodd;stroke:none"
         id="path1305" />
    </marker>
    <marker
       style="overflow:visible"
       id="Arrow2"
       refX="0"
       refY="0"
       orient="auto-start-reverse"
       inkscape:stockid="Arrow2"
       markerWidth="7.6999998"
       markerHeight="5.5999999"
       viewBox="0 0 7.7 5.6"
       inkscape:isstock="true"
       inkscape:collect="always"
       preserveAspectRatio="xMidYMid">
      <path
         transform="scale(0.7)"
         d="M -2,-4 9,0 -2,4 c 2,-2.33 2,-5.66 0,-8 z"
         style="fill:context-stroke;fill-rule:evenodd;stroke:none"
         id="arrow2L" />
    </marker>
    <clipPath
       clipPathUnits="userSpaceOnUse"
       id="clipPath797">
      <g
         id="g803">
        <g
           id="g801">
          <path
             fill="none"
             stroke="none"
             d="M 0,0 H 1172 V 738 H 0 Z"
             id="path799" />
        </g>
      </g>
    </clipPath>
    <clipPath
       clipPathUnits="userSpaceOnUse"
       id="clipPath805">
      <g
         id="g811">
        <g
           id="g809">
          <path
             fill="none"
             stroke="none"
             d="M 0,0 H 1172 V 738 H 0 Z"
             id="path807" />
        </g>
      </g>
    </clipPath>
    <clipPath
       clipPathUnits="userSpaceOnUse"
       id="clipPath813">
      <g
         id="g819">
        <g
           id="g817">
          <path
             fill="none"
             stroke="none"
             d="M 0,0 H 1172 V 738 H 0 Z"
             id="path815" />
        </g>
      </g>
    </clipPath>
    <clipPath
       clipPathUnits="userSpaceOnUse"
       id="clipPath821">
      <g
         id="g827">
        <g
           id="g825">
          <path
             fill="none"
             stroke="none"
             d="M 0,0 H 1172 V 738 H 0 Z"
             id="path823" />
        </g>
      </g>
    </clipPath>
    <clipPath
       clipPathUnits="userSpaceOnUse"
       id="clipPath829">
      <g
         id="g835">
        <g
           id="g833">
          <path
             fill="none"
             stroke="none"
             d="M 0,0 H 1172 V 738 H 0 Z"
             id="path831" />
        </g>
      </g>
    </clipPath>
    <clipPath
       clipPathUnits="userSpaceOnUse"
       id="clipPath837">
      <g
         id="g843">
        <g
           id="g841">
          <path
             fill="none"
             stroke="none"
             d="M 0,0 H 1172 V 738 H 0 Z"
             id="path839" />
        </g>
      </g>
    </clipPath>
    <clipPath
       clipPathUnits="userSpaceOnUse"
       id="clipPath845">
      <g
         id="g851">
        <g
           id="g849">
          <path
             fill="none"
             stroke="none"
             d="M 0,0 H 1172 V 738 H 0 Z"
             id="path847" />
        </g>
      </g>
    </clipPath>
    <clipPath
       clipPathUnits="userSpaceOnUse"
       id="clipPath853">
      <g
         id="g859">
        <g
           id="g857">
          <path
             fill="none"
             stroke="none"
             d="M 0,0 H 1172 V 738 H 0 Z"
             id="path855" />
        </g>
      </g>
    </clipPath>
    <clipPath
       clipPathUnits="userSpaceOnUse"
       id="clipPath861">
      <g
         id="g867">
        <g
           id="g865">
          <path
             fill="none"
             stroke="none"
             d="M 0,0 H 1172 V 738 H 0 Z"
             id="path863" />
        </g>
      </g>
    </clipPath>
    <clipPath
       clipPathUnits="userSpaceOnUse"
       id="clipPath869">
      <g
         id="g875">
        <g
           id="g873">
          <path
             fill="none"
             stroke="none"
             d="M 0,0 H 1172 V 738 H 0 Z"
             id="path871" />
        </g>
      </g>
    </clipPath>
    <clipPath
       clipPathUnits="userSpaceOnUse"
       id="clipPath877">
      <g
         id="g883">
        <g
           id="g881">
          <path
             fill="none"
             stroke="none"
             d="M 0,0 H 1172 V 738 H 0 Z"
             id="path879" />
        </g>
      </g>
    </clipPath>
  </defs>
  <rect
     fill="#ffffff"
     stroke="none"
     x="0"
     y="0"
     width="1172"
     height="738"
     fill-opacity="1"
     id="rect7"
     clip-path="url(#clipPath877)" />
  <path
     fill="none"
     stroke="#c0c0c0"
     paint-order="fill stroke markers"
     d="M 1,0 V 738 M 1,0 V 738 M 57,0 V 738 M 112,0 V 738 M 167,0 V 738 M 223,0 V 738 M 278,0 V 738 M 334,0 V 738 M 389,0 V 738 M 445,0 V 738 M 500,0 V 738 M 611,0 V 738 M 666,0 V 738 M 722,0 V 738 M 777,0 V 738 M 832,0 V 738 M 888,0 V 738 M 943,0 V 738 M 999,0 V 738 M 1054,0 V 738 M 1109,0 V 738 M 1165,0 v 738"
     stroke-opacity="1"
     stroke-linecap="round"
     stroke-linejoin="round"
     stroke-miterlimit="10"
     stroke-width="2"
     id="path9"
     clip-path="url(#clipPath869)" />
  <path
     fill="none"
     stroke="#c0c0c0"
     paint-order="fill stroke markers"
     d=""
     stroke-opacity="0.235294"
     stroke-linecap="round"
     stroke-linejoin="round"
     stroke-miterlimit="10"
     stroke-width="2"
     id="path11" />
  <path
     fill="none"
     stroke="#c0c0c0"
     paint-order="fill stroke markers"
     d="M 0,46 H 1172 M 0,46 H 1172 M 0,93 H 1172 M 0,140 H 1172 M 0,187 H 1172 M 0,234 H 1172 M 0,280 H 1172 M 0,327 H 1172 M 0,421 H 1172 M 0,468 H 1172 M 0,515 H 1172 M 0,562 H 1172 M 0,608 H 1172 M 0,655 H 1172 M 0,702 h 1172"
     stroke-opacity="1"
     stroke-linecap="round"
     stroke-linejoin="round"
     stroke-miterlimit="10"
     stroke-width="2"
     id="path13"
     clip-path="url(#clipPath861)" />
  <path
     fill="none"
     stroke="#c0c0c0"
     paint-order="fill stroke markers"
     d=""
     stroke-opacity="0.235294"
     stroke-linecap="round"
     stroke-linejoin="round"
     stroke-miterlimit="10"
     stroke-width="2"
     id="path15" />
  <path
     fill="none"
     stroke="#252525"
     paint-order="fill stroke markers"
     d="M 554.90735,12.854847 555,738"
     stroke-opacity="1"
     stroke-miterlimit="10"
     stroke-width="2"
     id="path17"
     clip-path="url(#clipPath853)"
     style="marker-start:url(#marker1307)"
     sodipodi:nodetypes="cc" />
  <path
     fill="none"
     stroke="#252525"
     paint-order="fill stroke markers"
     d="m 0,374 1152.559,0.001"
     stroke-opacity="1"
     stroke-miterlimit="10"
     stroke-width="2"
     id="path23"
     clip-path="url(#clipPath829)"
     style="marker-end:url(#Arrow2)"
     sodipodi:nodetypes="cc" />
  <text
     x="31"
     y="394"
     id="text29"
     style="font-style:normal;font-variant:normal;font-weight:bold;font-stretch:normal;font-size:24px;font-family:'Crimson Text';-inkscape-font-specification:'Crimson Text, Bold';font-variant-ligatures:normal;font-variant-caps:normal;font-variant-numeric:normal;font-variant-east-asian:normal;dominant-baseline:alphabetic;text-anchor:start;fill:#252525;fill-opacity:1;stroke:none">–4.5</text>
  <text
     x="31"
     y="394"
     id="text33"
     style="font-style:normal;font-variant:normal;font-weight:bold;font-stretch:normal;font-size:24px;font-family:'Crimson Text';-inkscape-font-specification:'Crimson Text, Bold';font-variant-ligatures:normal;font-variant-caps:normal;font-variant-numeric:normal;font-variant-east-asian:normal;dominant-baseline:alphabetic;text-anchor:start;fill:#252525;fill-opacity:1;stroke:none">–4.5</text>
  <text
     x="93"
     y="394"
     id="text39"
     style="font-style:normal;font-variant:normal;font-weight:bold;font-stretch:normal;font-size:24px;font-family:'Crimson Text';-inkscape-font-specification:'Crimson Text, Bold';font-variant-ligatures:normal;font-variant-caps:normal;font-variant-numeric:normal;font-variant-east-asian:normal;dominant-baseline:alphabetic;text-anchor:start;fill:#252525;fill-opacity:1;stroke:none">–4</text>
  <text
     x="142"
     y="394"
     id="text45"
     style="font-style:normal;font-variant:normal;font-weight:bold;font-stretch:normal;font-size:24px;font-family:'Crimson Text';-inkscape-font-specification:'Crimson Text, Bold';font-variant-ligatures:normal;font-variant-caps:normal;font-variant-numeric:normal;font-variant-east-asian:normal;dominant-baseline:alphabetic;text-anchor:start;fill:#252525;fill-opacity:1;stroke:none">–3.5</text>
  <text
     x="204"
     y="394"
     id="text51"
     style="font-style:normal;font-variant:normal;font-weight:bold;font-stretch:normal;font-size:24px;font-family:'Crimson Text';-inkscape-font-specification:'Crimson Text, Bold';font-variant-ligatures:normal;font-variant-caps:normal;font-variant-numeric:normal;font-variant-east-asian:normal;dominant-baseline:alphabetic;text-anchor:start;fill:#252525;fill-opacity:1;stroke:none">–3</text>
  <text
     x="252"
     y="394"
     id="text57"
     style="font-style:normal;font-variant:normal;font-weight:bold;font-stretch:normal;font-size:24px;font-family:'Crimson Text';-inkscape-font-specification:'Crimson Text, Bold';font-variant-ligatures:normal;font-variant-caps:normal;font-variant-numeric:normal;font-variant-east-asian:normal;dominant-baseline:alphabetic;text-anchor:start;fill:#252525;fill-opacity:1;stroke:none">–2.5</text>
  <text
     x="315"
     y="394"
     id="text63"
     style="font-style:normal;font-variant:normal;font-weight:bold;font-stretch:normal;font-size:24px;font-family:'Crimson Text';-inkscape-font-specification:'Crimson Text, Bold';font-variant-ligatures:normal;font-variant-caps:normal;font-variant-numeric:normal;font-variant-east-asian:normal;dominant-baseline:alphabetic;text-anchor:start;fill:#252525;fill-opacity:1;stroke:none">–2</text>
  <text
     x="363"
     y="394"
     id="text69"
     style="font-style:normal;font-variant:normal;font-weight:bold;font-stretch:normal;font-size:24px;font-family:'Crimson Text';-inkscape-font-specification:'Crimson Text, Bold';font-variant-ligatures:normal;font-variant-caps:normal;font-variant-numeric:normal;font-variant-east-asian:normal;dominant-baseline:alphabetic;text-anchor:start;fill:#252525;fill-opacity:1;stroke:none">–1.5</text>
  <text
     x="426"
     y="394"
     id="text75"
     style="font-style:normal;font-variant:normal;font-weight:bold;font-stretch:normal;font-size:24px;font-family:'Crimson Text';-inkscape-font-specification:'Crimson Text, Bold';font-variant-ligatures:normal;font-variant-caps:normal;font-variant-numeric:normal;font-variant-east-asian:normal;dominant-baseline:alphabetic;text-anchor:start;fill:#252525;fill-opacity:1;stroke:none">–1</text>
  <text
     x="474"
     y="394"
     id="text81"
     style="font-style:normal;font-variant:normal;font-weight:bold;font-stretch:normal;font-size:24px;font-family:'Crimson Text';-inkscape-font-specification:'Crimson Text, Bold';font-variant-ligatures:normal;font-variant-caps:normal;font-variant-numeric:normal;font-variant-east-asian:normal;dominant-baseline:alphabetic;text-anchor:start;fill:#252525;fill-opacity:1;stroke:none">–0.5</text>
  <text
     x="596"
     y="394"
     id="text87"
     style="font-style:normal;font-variant:normal;font-weight:bold;font-stretch:normal;font-size:24px;font-family:'Crimson Text';-inkscape-font-specification:'Crimson Text, Bold';font-variant-ligatures:normal;font-variant-caps:normal;font-variant-numeric:normal;font-variant-east-asian:normal;dominant-baseline:alphabetic;text-anchor:start;fill:#252525;fill-opacity:1;stroke:none">0.5</text>
  <text
     x="659"
     y="394"
     id="text93"
     style="font-style:normal;font-variant:normal;font-weight:bold;font-stretch:normal;font-size:24px;font-family:'Crimson Text';-inkscape-font-specification:'Crimson Text, Bold';font-variant-ligatures:normal;font-variant-caps:normal;font-variant-numeric:normal;font-variant-east-asian:normal;dominant-baseline:alphabetic;text-anchor:start;fill:#252525;fill-opacity:1;stroke:none">1</text>
  <text
     x="707"
     y="394"
     id="text99"
     style="font-style:normal;font-variant:normal;font-weight:bold;font-stretch:normal;font-size:24px;font-family:'Crimson Text';-inkscape-font-specification:'Crimson Text, Bold';font-variant-ligatures:normal;font-variant-caps:normal;font-variant-numeric:normal;font-variant-east-asian:normal;dominant-baseline:alphabetic;text-anchor:start;fill:#252525;fill-opacity:1;stroke:none">1.5</text>
  <text
     x="770"
     y="394"
     id="text105"
     style="font-style:normal;font-variant:normal;font-weight:bold;font-stretch:normal;font-size:24px;font-family:'Crimson Text';-inkscape-font-specification:'Crimson Text, Bold';font-variant-ligatures:normal;font-variant-caps:normal;font-variant-numeric:normal;font-variant-east-asian:normal;dominant-baseline:alphabetic;text-anchor:start;fill:#252525;fill-opacity:1;stroke:none">2</text>
  <text
     x="818"
     y="394"
     id="text111"
     style="font-style:normal;font-variant:normal;font-weight:bold;font-stretch:normal;font-size:24px;font-family:'Crimson Text';-inkscape-font-specification:'Crimson Text, Bold';font-variant-ligatures:normal;font-variant-caps:normal;font-variant-numeric:normal;font-variant-east-asian:normal;dominant-baseline:alphabetic;text-anchor:start;fill:#252525;fill-opacity:1;stroke:none">2.5</text>
  <text
     x="881"
     y="394"
     id="text117"
     style="font-style:normal;font-variant:normal;font-weight:bold;font-stretch:normal;font-size:24px;font-family:'Crimson Text';-inkscape-font-specification:'Crimson Text, Bold';font-variant-ligatures:normal;font-variant-caps:normal;font-variant-numeric:normal;font-variant-east-asian:normal;dominant-baseline:alphabetic;text-anchor:start;fill:#252525;fill-opacity:1;stroke:none">3</text>
  <text
     x="929"
     y="394"
     id="text123"
     style="font-style:normal;font-variant:normal;font-weight:bold;font-stretch:normal;font-size:24px;font-family:'Crimson Text';-inkscape-font-specification:'Crimson Text, Bold';font-variant-ligatures:normal;font-variant-caps:normal;font-variant-numeric:normal;font-variant-east-asian:normal;dominant-baseline:alphabetic;text-anchor:start;fill:#252525;fill-opacity:1;stroke:none">3.5</text>
  <text
     x="991"
     y="394"
     id="text129"
     style="font-style:normal;font-variant:normal;font-weight:bold;font-stretch:normal;font-size:24px;font-family:'Crimson Text';-inkscape-font-specification:'Crimson Text, Bold';font-variant-ligatures:normal;font-variant-caps:normal;font-variant-numeric:normal;font-variant-east-asian:normal;dominant-baseline:alphabetic;text-anchor:start;fill:#252525;fill-opacity:1;stroke:none">4</text>
  <text
     x="1040"
     y="394"
     id="text135"
     style="font-style:normal;font-variant:normal;font-weight:bold;font-stretch:normal;font-size:24px;font-family:'Crimson Text';-inkscape-font-specification:'Crimson Text, Bold';font-variant-ligatures:normal;font-variant-caps:normal;font-variant-numeric:normal;font-variant-east-asian:normal;dominant-baseline:alphabetic;text-anchor:start;fill:#252525;fill-opacity:1;stroke:none">4.5</text>
  <text
     x="1102"
     y="394"
     id="text141"
     style="font-style:normal;font-variant:normal;font-weight:bold;font-stretch:normal;font-size:24px;font-family:'Crimson Text';-inkscape-font-specification:'Crimson Text, Bold';font-variant-ligatures:normal;font-variant-caps:normal;font-variant-numeric:normal;font-variant-east-asian:normal;dominant-baseline:alphabetic;text-anchor:start;fill:#252525;fill-opacity:1;stroke:none">5</text>
  <text
     x="511"
     y="707"
     id="text147"
     style="font-style:normal;font-variant:normal;font-weight:bold;font-stretch:normal;font-size:24px;font-family:'Crimson Text';-inkscape-font-specification:'Crimson Text, Bold';font-variant-ligatures:normal;font-variant-caps:normal;font-variant-numeric:normal;font-variant-east-asian:normal;dominant-baseline:alphabetic;text-anchor:start;fill:#252525;fill-opacity:1;stroke:none">–1.4</text>
  <text
     x="511"
     y="660"
     id="text153"
     style="font-style:normal;font-variant:normal;font-weight:bold;font-stretch:normal;font-size:24px;font-family:'Crimson Text';-inkscape-font-specification:'Crimson Text, Bold';font-variant-ligatures:normal;font-variant-caps:normal;font-variant-numeric:normal;font-variant-east-asian:normal;dominant-baseline:alphabetic;text-anchor:start;fill:#252525;fill-opacity:1;stroke:none">–1.2</text>
  <text
     x="521"
     y="613"
     id="text159"
     style="font-style:normal;font-variant:normal;font-weight:bold;font-stretch:normal;font-size:24px;font-family:'Crimson Text';-inkscape-font-specification:'Crimson Text, Bold';font-variant-ligatures:normal;font-variant-caps:normal;font-variant-numeric:normal;font-variant-east-asian:normal;dominant-baseline:alphabetic;text-anchor:start;fill:#252525;fill-opacity:1;stroke:none">–1</text>
  <text
     x="511"
     y="566"
     id="text165"
     style="font-style:normal;font-variant:normal;font-weight:bold;font-stretch:normal;font-size:24px;font-family:'Crimson Text';-inkscape-font-specification:'Crimson Text, Bold';font-variant-ligatures:normal;font-variant-caps:normal;font-variant-numeric:normal;font-variant-east-asian:normal;dominant-baseline:alphabetic;text-anchor:start;fill:#252525;fill-opacity:1;stroke:none">–0.8</text>
  <text
     x="511"
     y="519"
     id="text171"
     style="font-style:normal;font-variant:normal;font-weight:bold;font-stretch:normal;font-size:24px;font-family:'Crimson Text';-inkscape-font-specification:'Crimson Text, Bold';font-variant-ligatures:normal;font-variant-caps:normal;font-variant-numeric:normal;font-variant-east-asian:normal;dominant-baseline:alphabetic;text-anchor:start;fill:#252525;fill-opacity:1;stroke:none">–0.6</text>
  <text
     x="511"
     y="472"
     id="text177"
     style="font-style:normal;font-variant:normal;font-weight:bold;font-stretch:normal;font-size:24px;font-family:'Crimson Text';-inkscape-font-specification:'Crimson Text, Bold';font-variant-ligatures:normal;font-variant-caps:normal;font-variant-numeric:normal;font-variant-east-asian:normal;dominant-baseline:alphabetic;text-anchor:start;fill:#252525;fill-opacity:1;stroke:none">–0.4</text>
  <text
     x="511"
     y="426"
     id="text183"
     style="font-style:normal;font-variant:normal;font-weight:bold;font-stretch:normal;font-size:24px;font-family:'Crimson Text';-inkscape-font-specification:'Crimson Text, Bold';font-variant-ligatures:normal;font-variant-caps:normal;font-variant-numeric:normal;font-variant-east-asian:normal;dominant-baseline:alphabetic;text-anchor:start;fill:#252525;fill-opacity:1;stroke:none">–0.2</text>
  <text
     x="521"
     y="332"
     id="text189"
     style="font-style:normal;font-variant:normal;font-weight:bold;font-stretch:normal;font-size:24px;font-family:'Crimson Text';-inkscape-font-specification:'Crimson Text, Bold';font-variant-ligatures:normal;font-variant-caps:normal;font-variant-numeric:normal;font-variant-east-asian:normal;dominant-baseline:alphabetic;text-anchor:start;fill:#252525;fill-opacity:1;stroke:none">0.2</text>
  <text
     x="521"
     y="285"
     id="text195"
     style="font-style:normal;font-variant:normal;font-weight:bold;font-stretch:normal;font-size:24px;font-family:'Crimson Text';-inkscape-font-specification:'Crimson Text, Bold';font-variant-ligatures:normal;font-variant-caps:normal;font-variant-numeric:normal;font-variant-east-asian:normal;dominant-baseline:alphabetic;text-anchor:start;fill:#252525;fill-opacity:1;stroke:none">0.4</text>
  <text
     x="521"
     y="238"
     id="text201"
     style="font-style:normal;font-variant:normal;font-weight:bold;font-stretch:normal;font-size:24px;font-family:'Crimson Text';-inkscape-font-specification:'Crimson Text, Bold';font-variant-ligatures:normal;font-variant-caps:normal;font-variant-numeric:normal;font-variant-east-asian:normal;dominant-baseline:alphabetic;text-anchor:start;fill:#252525;fill-opacity:1;stroke:none">0.6</text>
  <text
     x="521"
     y="191"
     id="text207"
     style="font-style:normal;font-variant:normal;font-weight:bold;font-stretch:normal;font-size:24px;font-family:'Crimson Text';-inkscape-font-specification:'Crimson Text, Bold';font-variant-ligatures:normal;font-variant-caps:normal;font-variant-numeric:normal;font-variant-east-asian:normal;dominant-baseline:alphabetic;text-anchor:start;fill:#252525;fill-opacity:1;stroke:none">0.8</text>
  <text
     x="531"
     y="144"
     id="text213"
     style="font-style:normal;font-variant:normal;font-weight:bold;font-stretch:normal;font-size:24px;font-family:'Crimson Text';-inkscape-font-specification:'Crimson Text, Bold';font-variant-ligatures:normal;font-variant-caps:normal;font-variant-numeric:normal;font-variant-east-asian:normal;dominant-baseline:alphabetic;text-anchor:start;fill:#252525;fill-opacity:1;stroke:none">1</text>
  <text
     x="521"
     y="97"
     id="text219"
     style="font-style:normal;font-variant:normal;font-weight:bold;font-stretch:normal;font-size:24px;font-family:'Crimson Text';-inkscape-font-specification:'Crimson Text, Bold';font-variant-ligatures:normal;font-variant-caps:normal;font-variant-numeric:normal;font-variant-east-asian:normal;dominant-baseline:alphabetic;text-anchor:start;fill:#252525;fill-opacity:1;stroke:none">1.2</text>
  <text
     x="521"
     y="51"
     id="text225"
     style="font-style:normal;font-variant:normal;font-weight:bold;font-stretch:normal;font-size:24px;font-family:'Crimson Text';-inkscape-font-specification:'Crimson Text, Bold';font-variant-ligatures:normal;font-variant-caps:normal;font-variant-numeric:normal;font-variant-east-asian:normal;dominant-baseline:alphabetic;text-anchor:start;fill:#252525;fill-opacity:1;stroke:none">1.4</text>
  <text
     x="557"
     y="394"
     id="text231"
     style="font-style:normal;font-variant:normal;font-weight:bold;font-stretch:normal;font-size:24px;font-family:'Crimson Text';-inkscape-font-specification:'Crimson Text, Bold';font-variant-ligatures:normal;font-variant-caps:normal;font-variant-numeric:normal;font-variant-east-asian:normal;dominant-baseline:alphabetic;text-anchor:start;fill:#252525;fill-opacity:1;stroke:none">0</text>
  <path
     fill="none"
     stroke="#0000ff"
     paint-order="fill stroke markers"
     d="m 0,467.23284 4.578125,-0.0263 4.578125,-0.0274 4.578125,-0.0286 4.578125,-0.0298 4.578125,-0.0311 4.578125,-0.0324 4.578125,-0.0337 4.578125,-0.0352 4.578125,-0.0366 4.578125,-0.0382 4.578125,-0.0398 4.578125,-0.0415 4.578125,-0.0432 4.578125,-0.0451 4.578125,-0.0469 4.578125,-0.0489 4.578125,-0.051 4.578125,-0.0532 4.578125,-0.0554 4.578125,-0.0577 4.578125,-0.0602 4.578125,-0.0627 4.57813,-0.0654 4.57812,-0.0681 4.57813,-0.071 4.57812,-0.074 4.57813,-0.0771 4.57812,-0.0803 4.57812,-0.0837 4.57813,-0.0873 4.57813,-0.0909 4.57812,-0.0948 4.57812,-0.0988 4.57813,-0.10294 4.57812,-0.10728 4.57813,-0.11181 4.57812,-0.11652 4.57813,-0.12144 4.57812,-0.12656 4.57813,-0.13189 4.57812,-0.13746 4.57813,-0.14326 4.57812,-0.1493 4.57813,-0.1556 4.57812,-0.16216 4.57813,-0.169 4.57813,-0.17612 4.57812,-0.18356 4.57812,-0.1913 4.57813,-0.19937 4.57812,-0.20777 4.57813,-0.21654 4.57812,-0.22568 4.57813,-0.23519 4.57812,-0.24511 4.57813,-0.25545 4.57812,-0.26623 4.57813,-0.27745 4.57812,-0.28916 4.57813,-0.30135 4.57812,-0.31407 4.57813,-0.32731 4.57812,-0.34112 4.57813,-0.3555 4.57812,-0.3705 4.57813,-0.38612 4.57812,-0.40242 4.57813,-0.41938 4.57812,-0.43708 4.57813,-0.4555 4.57812,-0.47473 4.57813,-0.49474 4.57812,-0.51561 4.57813,-0.53737 4.57812,-0.56002 4.57813,-0.58365 4.57812,-0.60826 4.57813,-0.63392 4.57812,-0.66066 4.57813,-0.68852 4.57812,-0.71757 4.57813,-0.74783 4.57812,-0.77937 4.57813,-0.81225 4.57812,-0.8465 4.57813,-0.88221 4.57812,-0.91942 4.57813,-0.9582 4.57812,-0.99861 4.57813,-1.04074 4.57812,-1.08463 4.57813,-1.13038 4.57812,-1.17806 4.57813,-1.22774 4.57812,-1.27953 4.57813,-1.3335 4.57812,-1.38975 4.57813,-1.44836 4.57812,-1.50945 4.57813,-1.57312 4.57813,-1.63947 4.57812,-1.70862 4.57812,-1.78069 4.57813,-1.85579 4.57812,-1.93407 4.57813,-2.01565 4.57812,-2.10066 4.57813,-2.18927 4.57812,-2.2816 4.57813,-2.37784 4.57812,-2.47814 4.57813,-2.58266 4.57812,-2.69159 4.57813,-2.80512 4.57812,-2.92343 4.57813,-3.04675 4.57812,-3.17524 4.57813,-3.30918 4.57812,-3.44875 4.57813,-3.59422 4.57812,-3.74581 1.14454,-0.96089 0.4292,-0.60824 0.71533,-1.51236 2.28906,-4.83956 4.57812,-9.67911 4.57813,-9.67912 4.57812,-9.67911 4.57813,-9.67912 4.57812,-9.67911 4.57813,-9.67912 4.57812,-9.67911 4.57813,-9.67911 4.57812,-9.67912 4.57813,-9.67911 4.57812,-9.67912 4.57813,-9.67911 4.57812,-9.67912 4.57813,-9.67911 4.57812,-9.67912 4.57813,-9.67911 4.57812,-9.67912 4.57813,-9.67911 4.57812,-9.67911 4.57813,-9.67912 4.57812,-9.67911 4.57813,-9.67912 4.57812,-9.67911 4.57813,-9.67912 4.57812,-9.67911 4.57813,-9.67912 4.57812,-9.67911 4.57813,-9.679115 4.57812,-9.679115 4.57813,-9.679114 4.57812,-9.679115 4.57813,-9.679114 4.57812,-9.679115 4.57813,-9.679115 4.57812,-9.679114 4.57813,-9.679115 4.57812,-9.6791142 4.57813,-9.67911453 4.57812,-9.67911427"
     stroke-opacity="1"
     stroke-linecap="round"
     stroke-linejoin="round"
     stroke-miterlimit="10"
     stroke-width="3.5"
     id="path233"
     clip-path="url(#clipPath805)" />
  <text
     x="735.74268"
     y="33.431801"
     id="text235"
     style="font-style:italic;font-variant:normal;font-weight:bold;font-stretch:normal;font-size:37.3333px;font-family:'Crimson Text';-inkscape-font-specification:'Crimson Text, Bold Italic';font-variant-ligatures:normal;font-variant-caps:normal;font-variant-numeric:normal;font-variant-east-asian:normal;dominant-baseline:alphabetic;text-anchor:start;fill:#0000ff;fill-opacity:1;stroke:none">f(x)</text>
  <path
     fill="none"
     stroke="#ff0000"
     paint-order="fill stroke markers"
     d="m 0,373.51855 4.578125,-0.0263 4.578125,-0.0274 4.578125,-0.0286 4.578125,-0.0298 4.578125,-0.0311 4.578125,-0.0324 4.578125,-0.0337 4.578125,-0.0352 4.578125,-0.0367 4.578125,-0.0382 4.578125,-0.0398 4.578125,-0.0415 4.578125,-0.0432 4.578125,-0.0451 4.578125,-0.047 4.578125,-0.0489 4.578125,-0.051 4.578125,-0.0531 4.578125,-0.0554 4.578125,-0.0577 4.578125,-0.0602 4.578125,-0.0627 4.57813,-0.0653 4.57812,-0.0681 4.57813,-0.071 4.57812,-0.074 4.57813,-0.0771 4.57812,-0.0803 4.57812,-0.0837 4.57813,-0.0873 4.57813,-0.0909 4.57812,-0.0948 4.57812,-0.0988 4.57813,-0.10294 4.57812,-0.10728 4.57813,-0.1118 4.57812,-0.11653 4.57813,-0.12143 4.57812,-0.12656 4.57813,-0.1319 4.57812,-0.13746 4.57813,-0.14325 4.57812,-0.1493 4.57813,-0.1556 4.57812,-0.16216 4.57813,-0.169 4.57813,-0.17613 4.57812,-0.18356 4.57812,-0.1913 4.57813,-0.19936 4.57812,-0.20778 4.57813,-0.21654 4.57812,-0.22567 4.57813,-0.2352 4.57812,-0.24511 4.57813,-0.25545 4.57812,-0.26622 4.57813,-0.27746 4.57812,-0.28916 4.57813,-0.30135 4.57812,-0.31406 4.57813,-0.32731 4.57812,-0.34112 4.57813,-0.3555 4.57812,-0.3705 4.57813,-0.38613 4.57812,-0.40241 4.57813,-0.41939 4.57812,-0.43707 4.57813,-0.45551 4.57812,-0.47472 4.57813,-0.49475 4.57812,-0.51561 4.57813,-0.53736 4.57812,-0.56003 4.57813,-0.58364 4.57812,-0.60827 4.57813,-0.63392 4.57812,-0.66066 4.57813,-0.68852 4.57812,-0.71756 4.57813,-0.74783 4.57812,-0.77938 4.57813,-0.81224 4.57812,-0.84651 4.57813,-0.88221 4.57812,-0.91941 4.57813,-0.9582 4.57812,-0.99862 4.57813,-1.04073 4.57812,-1.08463 4.57813,-1.13038 4.57812,-1.17806 4.57813,-1.22775 4.57812,-1.27953 4.57813,-1.3335 4.57812,-1.38974 4.57813,-1.44837 4.57812,-1.50945 4.57813,-1.57312 4.57813,-1.63947 4.57812,-1.70862 4.57812,-1.78068 4.57813,-1.8558 4.57812,-1.93407 4.57813,-2.01564 4.57812,-2.10067 4.57813,-2.18926 4.57812,-2.28161 4.57813,-2.37784 4.57812,-2.47813 4.57813,-2.58266 4.57812,-2.6916 4.57813,-2.80511 4.57812,-2.92344 4.57813,-3.04674 4.57812,-3.17525 4.57813,-3.30918 4.57812,-3.44875 4.57813,-3.59421 4.57812,-3.74582 1.14454,-0.96088 m 0.28613,-140.77053 h 0.0715 0.78687 2.28906 4.57812 4.57813 4.57812 4.57813 4.57812 4.57813 4.57812 4.57813 4.57812 4.57813 4.57812 4.57813 4.57812 4.57813 4.57812 4.57813 4.57812 4.57813 4.57812 4.57813 4.57812 4.57813 4.57812 4.57813 4.57812 4.57813 4.57812 4.57813 4.57812 4.57813 4.57812 4.57813 4.57812 4.57813 4.57812 4.57813 4.57812 4.57813 4.57812 4.57813 4.57812 4.57813 4.57812 4.57813 4.57812 4.57813 4.57812 4.57813 4.57812 4.57813 4.57812 4.57813 4.57812 4.57813 4.57812 4.57813 4.57812 4.57813 4.57812 4.57813 4.57812 4.57813 4.57812 4.57813 4.57812 4.57813 4.57812 4.57813 4.57812 4.57813 4.57812 4.57813 4.57812 4.57813 4.57812 4.57813 4.57812 4.57813 4.57812 4.57813 4.57812 4.57813 4.57812 4.57813 4.57812 4.57813 4.57812 4.57813 4.57812 4.57813 4.57812 4.57813 4.57812 4.57813 4.57812 4.57813 4.57818 4.5781 4.5781 4.5781 4.5782 4.5781 4.5781 4.5782 4.5781 4.5781 4.5781 4.5782 4.5781 4.5781 4.5781 4.5782 4.5781 4.5781 4.5781 4.5782 4.5781 4.5781 4.5781 4.5782 4.5781 4.5781 4.5781 4.5782 4.5781 4.5781 4.5781 4.5782 4.5781 4.5781 4.5781 4.5782 4.5781 4.5781"
     stroke-opacity="1"
     stroke-linejoin="round"
     stroke-miterlimit="10"
     stroke-width="3.5"
     stroke-dasharray="11.5, 8"
     id="path241"
     clip-path="url(#clipPath797)" />
  <text
     x="1082.347"
     y="120.01777"
     id="text243"
     style="font-style:italic;font-variant:normal;font-weight:bold;font-stretch:normal;font-size:37.3333px;font-family:'Crimson Text';-inkscape-font-specification:'Crimson Text, Bold Italic';font-variant-ligatures:normal;font-variant-caps:normal;font-variant-numeric:normal;font-variant-east-asian:normal;dominant-baseline:alphabetic;text-anchor:start;fill:#ff0000;fill-opacity:1;stroke:none">f '(x)</text>
</svg>
