<?xml version="1.0" encoding="UTF-8" standalone="no"?>
<svg
   version="1.1"
   width="1172"
   height="738"
   id="svg253"
   sodipodi:docname="act_arctan.svg"
   inkscape:version="1.2.2 (b0a8486541, 2022-12-01)"
   xmlns:inkscape="http://www.inkscape.org/namespaces/inkscape"
   xmlns:sodipodi="http://sodipodi.sourceforge.net/DTD/sodipodi-0.dtd"
   xmlns="http://www.w3.org/2000/svg"
   xmlns:svg="http://www.w3.org/2000/svg">
  <sodipodi:namedview
     id="namedview255"
     pagecolor="#ffffff"
     bordercolor="#666666"
     borderopacity="1.0"
     inkscape:showpageshadow="2"
     inkscape:pageopacity="0.0"
     inkscape:pagecheckerboard="0"
     inkscape:deskcolor="#d1d1d1"
     showgrid="false"
     inkscape:zoom="0.37560544"
     inkscape:cx="993.06336"
     inkscape:cy="41.266708"
     inkscape:window-width="1536"
     inkscape:window-height="792"
     inkscape:window-x="0"
     inkscape:window-y="0"
     inkscape:window-maximized="1"
     inkscape:current-layer="svg253" />
  <defs
     id="defs5">
    <marker
       style="overflow:visible"
       id="marker1254"
       refX="0"
       refY="0"
       orient="auto-start-reverse"
       inkscape:stockid="Arrow2"
       markerWidth="7.6999998"
       markerHeight="5.5999999"
       viewBox="0 0 7.7 5.6"
       inkscape:isstock="true"
       inkscape:collect="always"
       preserveAspectRatio="xMidYMid">
      <path
         transform="scale(0.7)"
         d="M -2,-4 9,0 -2,4 c 2,-2.33 2,-5.66 0,-8 z"
         style="fill:context-stroke;fill-rule:evenodd;stroke:none"
         id="path1252" />
    </marker>
    <marker
       style="overflow:visible"
       id="Arrow2"
       refX="0"
       refY="0"
       orient="auto-start-reverse"
       inkscape:stockid="Arrow2"
       markerWidth="7.6999998"
       markerHeight="5.5999999"
       viewBox="0 0 7.7 5.6"
       inkscape:isstock="true"
       inkscape:collect="always"
       preserveAspectRatio="xMidYMid">
      <path
         transform="scale(0.7)"
         d="M -2,-4 9,0 -2,4 c 2,-2.33 2,-5.66 0,-8 z"
         style="fill:context-stroke;fill-rule:evenodd;stroke:none"
         id="arrow2L" />
    </marker>
    <clipPath
       clipPathUnits="userSpaceOnUse"
       id="clipPath797">
      <g
         id="g803">
        <g
           id="g801">
          <path
             fill="none"
             stroke="none"
             d="M 0,0 H 1172 V 738 H 0 Z"
             id="path799" />
        </g>
      </g>
    </clipPath>
    <clipPath
       clipPathUnits="userSpaceOnUse"
       id="clipPath805">
      <g
         id="g811">
        <g
           id="g809">
          <path
             fill="none"
             stroke="none"
             d="M 0,0 H 1172 V 738 H 0 Z"
             id="path807" />
        </g>
      </g>
    </clipPath>
    <clipPath
       clipPathUnits="userSpaceOnUse"
       id="clipPath813">
      <g
         id="g819">
        <g
           id="g817">
          <path
             fill="none"
             stroke="none"
             d="M 0,0 H 1172 V 738 H 0 Z"
             id="path815" />
        </g>
      </g>
    </clipPath>
    <clipPath
       clipPathUnits="userSpaceOnUse"
       id="clipPath821">
      <g
         id="g827">
        <g
           id="g825">
          <path
             fill="none"
             stroke="none"
             d="M 0,0 H 1172 V 738 H 0 Z"
             id="path823" />
        </g>
      </g>
    </clipPath>
    <clipPath
       clipPathUnits="userSpaceOnUse"
       id="clipPath829">
      <g
         id="g835">
        <g
           id="g833">
          <path
             fill="none"
             stroke="none"
             d="M 0,0 H 1172 V 738 H 0 Z"
             id="path831" />
        </g>
      </g>
    </clipPath>
    <clipPath
       clipPathUnits="userSpaceOnUse"
       id="clipPath837">
      <g
         id="g843">
        <g
           id="g841">
          <path
             fill="none"
             stroke="none"
             d="M 0,0 H 1172 V 738 H 0 Z"
             id="path839" />
        </g>
      </g>
    </clipPath>
    <clipPath
       clipPathUnits="userSpaceOnUse"
       id="clipPath845">
      <g
         id="g851">
        <g
           id="g849">
          <path
             fill="none"
             stroke="none"
             d="M 0,0 H 1172 V 738 H 0 Z"
             id="path847" />
        </g>
      </g>
    </clipPath>
    <clipPath
       clipPathUnits="userSpaceOnUse"
       id="clipPath853">
      <g
         id="g859">
        <g
           id="g857">
          <path
             fill="none"
             stroke="none"
             d="M 0,0 H 1172 V 738 H 0 Z"
             id="path855" />
        </g>
      </g>
    </clipPath>
    <clipPath
       clipPathUnits="userSpaceOnUse"
       id="clipPath861">
      <g
         id="g867">
        <g
           id="g865">
          <path
             fill="none"
             stroke="none"
             d="M 0,0 H 1172 V 738 H 0 Z"
             id="path863" />
        </g>
      </g>
    </clipPath>
    <clipPath
       clipPathUnits="userSpaceOnUse"
       id="clipPath869">
      <g
         id="g875">
        <g
           id="g873">
          <path
             fill="none"
             stroke="none"
             d="M 0,0 H 1172 V 738 H 0 Z"
             id="path871" />
        </g>
      </g>
    </clipPath>
    <clipPath
       clipPathUnits="userSpaceOnUse"
       id="clipPath877">
      <g
         id="g883">
        <g
           id="g881">
          <path
             fill="none"
             stroke="none"
             d="M 0,0 H 1172 V 738 H 0 Z"
             id="path879" />
        </g>
      </g>
    </clipPath>
  </defs>
  <rect
     fill="#ffffff"
     stroke="none"
     x="0"
     y="0"
     width="1172"
     height="738"
     fill-opacity="1"
     id="rect7"
     clip-path="url(#clipPath877)" />
  <path
     fill="none"
     stroke="#c0c0c0"
     paint-order="fill stroke markers"
     d="M 1,0 V 738 M 1,0 V 738 M 57,0 V 738 M 112,0 V 738 M 167,0 V 738 M 223,0 V 738 M 278,0 V 738 M 334,0 V 738 M 389,0 V 738 M 445,0 V 738 M 500,0 V 738 M 611,0 V 738 M 666,0 V 738 M 722,0 V 738 M 777,0 V 738 M 832,0 V 738 M 888,0 V 738 M 943,0 V 738 M 999,0 V 738 M 1054,0 V 738 M 1109,0 V 738 M 1165,0 v 738"
     stroke-opacity="1"
     stroke-linecap="round"
     stroke-linejoin="round"
     stroke-miterlimit="10"
     stroke-width="2"
     id="path9"
     clip-path="url(#clipPath869)" />
  <path
     fill="none"
     stroke="#c0c0c0"
     paint-order="fill stroke markers"
     d=""
     stroke-opacity="0.235294"
     stroke-linecap="round"
     stroke-linejoin="round"
     stroke-miterlimit="10"
     stroke-width="2"
     id="path11" />
  <path
     fill="none"
     stroke="#c0c0c0"
     paint-order="fill stroke markers"
     d="M 0,46 H 1172 M 0,46 H 1172 M 0,93 H 1172 M 0,140 H 1172 M 0,187 H 1172 M 0,234 H 1172 M 0,280 H 1172 M 0,327 H 1172 M 0,421 H 1172 M 0,468 H 1172 M 0,515 H 1172 M 0,562 H 1172 M 0,608 H 1172 M 0,655 H 1172 M 0,702 h 1172"
     stroke-opacity="1"
     stroke-linecap="round"
     stroke-linejoin="round"
     stroke-miterlimit="10"
     stroke-width="2"
     id="path13"
     clip-path="url(#clipPath861)" />
  <path
     fill="none"
     stroke="#c0c0c0"
     paint-order="fill stroke markers"
     d=""
     stroke-opacity="0.235294"
     stroke-linecap="round"
     stroke-linejoin="round"
     stroke-miterlimit="10"
     stroke-width="2"
     id="path15" />
  <path
     fill="none"
     stroke="#252525"
     paint-order="fill stroke markers"
     d="M 555.74912,13.217426 555,738"
     stroke-opacity="1"
     stroke-miterlimit="10"
     stroke-width="2"
     id="path17"
     clip-path="url(#clipPath853)"
     style="marker-start:url(#marker1254)"
     sodipodi:nodetypes="cc" />
  <path
     fill="none"
     stroke="#252525"
     paint-order="fill stroke markers"
     d="m 0,374 1153.1792,0.11634"
     stroke-opacity="1"
     stroke-miterlimit="10"
     stroke-width="2"
     id="path23"
     clip-path="url(#clipPath829)"
     style="marker-end:url(#Arrow2)"
     sodipodi:nodetypes="cc" />
  <text
     x="31"
     y="394"
     id="text29"
     style="font-style:normal;font-variant:normal;font-weight:bold;font-stretch:normal;font-size:24px;font-family:'Crimson Text';-inkscape-font-specification:'Crimson Text, Bold';font-variant-ligatures:normal;font-variant-caps:normal;font-variant-numeric:normal;font-variant-east-asian:normal;dominant-baseline:alphabetic;text-anchor:start;fill:#252525;fill-opacity:1;stroke:none">–4.5</text>
  <text
     x="31"
     y="394"
     id="text33"
     style="font-style:normal;font-variant:normal;font-weight:bold;font-stretch:normal;font-size:24px;font-family:'Crimson Text';-inkscape-font-specification:'Crimson Text, Bold';font-variant-ligatures:normal;font-variant-caps:normal;font-variant-numeric:normal;font-variant-east-asian:normal;dominant-baseline:alphabetic;text-anchor:start;fill:#252525;fill-opacity:1;stroke:none">–4.5</text>
  <text
     x="93"
     y="394"
     id="text39"
     style="font-style:normal;font-variant:normal;font-weight:bold;font-stretch:normal;font-size:24px;font-family:'Crimson Text';-inkscape-font-specification:'Crimson Text, Bold';font-variant-ligatures:normal;font-variant-caps:normal;font-variant-numeric:normal;font-variant-east-asian:normal;dominant-baseline:alphabetic;text-anchor:start;fill:#252525;fill-opacity:1;stroke:none">–4</text>
  <text
     x="142"
     y="394"
     id="text45"
     style="font-style:normal;font-variant:normal;font-weight:bold;font-stretch:normal;font-size:24px;font-family:'Crimson Text';-inkscape-font-specification:'Crimson Text, Bold';font-variant-ligatures:normal;font-variant-caps:normal;font-variant-numeric:normal;font-variant-east-asian:normal;dominant-baseline:alphabetic;text-anchor:start;fill:#252525;fill-opacity:1;stroke:none">–3.5</text>
  <text
     x="204"
     y="394"
     id="text51"
     style="font-style:normal;font-variant:normal;font-weight:bold;font-stretch:normal;font-size:24px;font-family:'Crimson Text';-inkscape-font-specification:'Crimson Text, Bold';font-variant-ligatures:normal;font-variant-caps:normal;font-variant-numeric:normal;font-variant-east-asian:normal;dominant-baseline:alphabetic;text-anchor:start;fill:#252525;fill-opacity:1;stroke:none">–3</text>
  <text
     x="252"
     y="394"
     id="text57"
     style="font-style:normal;font-variant:normal;font-weight:bold;font-stretch:normal;font-size:24px;font-family:'Crimson Text';-inkscape-font-specification:'Crimson Text, Bold';font-variant-ligatures:normal;font-variant-caps:normal;font-variant-numeric:normal;font-variant-east-asian:normal;dominant-baseline:alphabetic;text-anchor:start;fill:#252525;fill-opacity:1;stroke:none">–2.5</text>
  <text
     x="315"
     y="394"
     id="text63"
     style="font-style:normal;font-variant:normal;font-weight:bold;font-stretch:normal;font-size:24px;font-family:'Crimson Text';-inkscape-font-specification:'Crimson Text, Bold';font-variant-ligatures:normal;font-variant-caps:normal;font-variant-numeric:normal;font-variant-east-asian:normal;dominant-baseline:alphabetic;text-anchor:start;fill:#252525;fill-opacity:1;stroke:none">–2</text>
  <text
     x="363"
     y="394"
     id="text69"
     style="font-style:normal;font-variant:normal;font-weight:bold;font-stretch:normal;font-size:24px;font-family:'Crimson Text';-inkscape-font-specification:'Crimson Text, Bold';font-variant-ligatures:normal;font-variant-caps:normal;font-variant-numeric:normal;font-variant-east-asian:normal;dominant-baseline:alphabetic;text-anchor:start;fill:#252525;fill-opacity:1;stroke:none">–1.5</text>
  <text
     x="426"
     y="394"
     id="text75"
     style="font-style:normal;font-variant:normal;font-weight:bold;font-stretch:normal;font-size:24px;font-family:'Crimson Text';-inkscape-font-specification:'Crimson Text, Bold';font-variant-ligatures:normal;font-variant-caps:normal;font-variant-numeric:normal;font-variant-east-asian:normal;dominant-baseline:alphabetic;text-anchor:start;fill:#252525;fill-opacity:1;stroke:none">–1</text>
  <text
     x="474"
     y="394"
     id="text81"
     style="font-style:normal;font-variant:normal;font-weight:bold;font-stretch:normal;font-size:24px;font-family:'Crimson Text';-inkscape-font-specification:'Crimson Text, Bold';font-variant-ligatures:normal;font-variant-caps:normal;font-variant-numeric:normal;font-variant-east-asian:normal;dominant-baseline:alphabetic;text-anchor:start;fill:#252525;fill-opacity:1;stroke:none">–0.5</text>
  <text
     x="596"
     y="394"
     id="text87"
     style="font-style:normal;font-variant:normal;font-weight:bold;font-stretch:normal;font-size:24px;font-family:'Crimson Text';-inkscape-font-specification:'Crimson Text, Bold';font-variant-ligatures:normal;font-variant-caps:normal;font-variant-numeric:normal;font-variant-east-asian:normal;dominant-baseline:alphabetic;text-anchor:start;fill:#252525;fill-opacity:1;stroke:none">0.5</text>
  <text
     x="659"
     y="394"
     id="text93"
     style="font-style:normal;font-variant:normal;font-weight:bold;font-stretch:normal;font-size:24px;font-family:'Crimson Text';-inkscape-font-specification:'Crimson Text, Bold';font-variant-ligatures:normal;font-variant-caps:normal;font-variant-numeric:normal;font-variant-east-asian:normal;dominant-baseline:alphabetic;text-anchor:start;fill:#252525;fill-opacity:1;stroke:none">1</text>
  <text
     x="707"
     y="394"
     id="text99"
     style="font-style:normal;font-variant:normal;font-weight:bold;font-stretch:normal;font-size:24px;font-family:'Crimson Text';-inkscape-font-specification:'Crimson Text, Bold';font-variant-ligatures:normal;font-variant-caps:normal;font-variant-numeric:normal;font-variant-east-asian:normal;dominant-baseline:alphabetic;text-anchor:start;fill:#252525;fill-opacity:1;stroke:none">1.5</text>
  <text
     x="770"
     y="394"
     id="text105"
     style="font-style:normal;font-variant:normal;font-weight:bold;font-stretch:normal;font-size:24px;font-family:'Crimson Text';-inkscape-font-specification:'Crimson Text, Bold';font-variant-ligatures:normal;font-variant-caps:normal;font-variant-numeric:normal;font-variant-east-asian:normal;dominant-baseline:alphabetic;text-anchor:start;fill:#252525;fill-opacity:1;stroke:none">2</text>
  <text
     x="818"
     y="394"
     id="text111"
     style="font-style:normal;font-variant:normal;font-weight:bold;font-stretch:normal;font-size:24px;font-family:'Crimson Text';-inkscape-font-specification:'Crimson Text, Bold';font-variant-ligatures:normal;font-variant-caps:normal;font-variant-numeric:normal;font-variant-east-asian:normal;dominant-baseline:alphabetic;text-anchor:start;fill:#252525;fill-opacity:1;stroke:none">2.5</text>
  <text
     x="881"
     y="394"
     id="text117"
     style="font-style:normal;font-variant:normal;font-weight:bold;font-stretch:normal;font-size:24px;font-family:'Crimson Text';-inkscape-font-specification:'Crimson Text, Bold';font-variant-ligatures:normal;font-variant-caps:normal;font-variant-numeric:normal;font-variant-east-asian:normal;dominant-baseline:alphabetic;text-anchor:start;fill:#252525;fill-opacity:1;stroke:none">3</text>
  <text
     x="929"
     y="394"
     id="text123"
     style="font-style:normal;font-variant:normal;font-weight:bold;font-stretch:normal;font-size:24px;font-family:'Crimson Text';-inkscape-font-specification:'Crimson Text, Bold';font-variant-ligatures:normal;font-variant-caps:normal;font-variant-numeric:normal;font-variant-east-asian:normal;dominant-baseline:alphabetic;text-anchor:start;fill:#252525;fill-opacity:1;stroke:none">3.5</text>
  <text
     x="991"
     y="394"
     id="text129"
     style="font-style:normal;font-variant:normal;font-weight:bold;font-stretch:normal;font-size:24px;font-family:'Crimson Text';-inkscape-font-specification:'Crimson Text, Bold';font-variant-ligatures:normal;font-variant-caps:normal;font-variant-numeric:normal;font-variant-east-asian:normal;dominant-baseline:alphabetic;text-anchor:start;fill:#252525;fill-opacity:1;stroke:none">4</text>
  <text
     x="1040"
     y="394"
     id="text135"
     style="font-style:normal;font-variant:normal;font-weight:bold;font-stretch:normal;font-size:24px;font-family:'Crimson Text';-inkscape-font-specification:'Crimson Text, Bold';font-variant-ligatures:normal;font-variant-caps:normal;font-variant-numeric:normal;font-variant-east-asian:normal;dominant-baseline:alphabetic;text-anchor:start;fill:#252525;fill-opacity:1;stroke:none">4.5</text>
  <text
     x="1102"
     y="394"
     id="text141"
     style="font-style:normal;font-variant:normal;font-weight:bold;font-stretch:normal;font-size:24px;font-family:'Crimson Text';-inkscape-font-specification:'Crimson Text, Bold';font-variant-ligatures:normal;font-variant-caps:normal;font-variant-numeric:normal;font-variant-east-asian:normal;dominant-baseline:alphabetic;text-anchor:start;fill:#252525;fill-opacity:1;stroke:none">5</text>
  <text
     x="561"
     y="707"
     id="text147"
     style="font-style:normal;font-variant:normal;font-weight:bold;font-stretch:normal;font-size:24px;font-family:'Crimson Text';-inkscape-font-specification:'Crimson Text, Bold';font-variant-ligatures:normal;font-variant-caps:normal;font-variant-numeric:normal;font-variant-east-asian:normal;dominant-baseline:alphabetic;text-anchor:start;fill:#252525;fill-opacity:1;stroke:none">–1.4</text>
  <text
     x="561"
     y="660"
     id="text153"
     style="font-style:normal;font-variant:normal;font-weight:bold;font-stretch:normal;font-size:24px;font-family:'Crimson Text';-inkscape-font-specification:'Crimson Text, Bold';font-variant-ligatures:normal;font-variant-caps:normal;font-variant-numeric:normal;font-variant-east-asian:normal;dominant-baseline:alphabetic;text-anchor:start;fill:#252525;fill-opacity:1;stroke:none">–1.2</text>
  <text
     x="571"
     y="613"
     id="text159"
     style="font-style:normal;font-variant:normal;font-weight:bold;font-stretch:normal;font-size:24px;font-family:'Crimson Text';-inkscape-font-specification:'Crimson Text, Bold';font-variant-ligatures:normal;font-variant-caps:normal;font-variant-numeric:normal;font-variant-east-asian:normal;dominant-baseline:alphabetic;text-anchor:start;fill:#252525;fill-opacity:1;stroke:none">–1</text>
  <text
     x="561"
     y="566"
     id="text165"
     style="font-style:normal;font-variant:normal;font-weight:bold;font-stretch:normal;font-size:24px;font-family:'Crimson Text';-inkscape-font-specification:'Crimson Text, Bold';font-variant-ligatures:normal;font-variant-caps:normal;font-variant-numeric:normal;font-variant-east-asian:normal;dominant-baseline:alphabetic;text-anchor:start;fill:#252525;fill-opacity:1;stroke:none">–0.8</text>
  <text
     x="561"
     y="519"
     id="text171"
     style="font-style:normal;font-variant:normal;font-weight:bold;font-stretch:normal;font-size:24px;font-family:'Crimson Text';-inkscape-font-specification:'Crimson Text, Bold';font-variant-ligatures:normal;font-variant-caps:normal;font-variant-numeric:normal;font-variant-east-asian:normal;dominant-baseline:alphabetic;text-anchor:start;fill:#252525;fill-opacity:1;stroke:none">–0.6</text>
  <text
     x="561"
     y="472"
     id="text177"
     style="font-style:normal;font-variant:normal;font-weight:bold;font-stretch:normal;font-size:24px;font-family:'Crimson Text';-inkscape-font-specification:'Crimson Text, Bold';font-variant-ligatures:normal;font-variant-caps:normal;font-variant-numeric:normal;font-variant-east-asian:normal;dominant-baseline:alphabetic;text-anchor:start;fill:#252525;fill-opacity:1;stroke:none">–0.4</text>
  <text
     x="561"
     y="426"
     id="text183"
     style="font-style:normal;font-variant:normal;font-weight:bold;font-stretch:normal;font-size:24px;font-family:'Crimson Text';-inkscape-font-specification:'Crimson Text, Bold';font-variant-ligatures:normal;font-variant-caps:normal;font-variant-numeric:normal;font-variant-east-asian:normal;dominant-baseline:alphabetic;text-anchor:start;fill:#252525;fill-opacity:1;stroke:none">–0.2</text>
  <text
     x="519"
     y="332"
     id="text189"
     style="font-style:normal;font-variant:normal;font-weight:bold;font-stretch:normal;font-size:24px;font-family:'Crimson Text';-inkscape-font-specification:'Crimson Text, Bold';font-variant-ligatures:normal;font-variant-caps:normal;font-variant-numeric:normal;font-variant-east-asian:normal;dominant-baseline:alphabetic;text-anchor:start;fill:#252525;fill-opacity:1;stroke:none">0.2</text>
  <text
     x="519"
     y="285"
     id="text195"
     style="font-style:normal;font-variant:normal;font-weight:bold;font-stretch:normal;font-size:24px;font-family:'Crimson Text';-inkscape-font-specification:'Crimson Text, Bold';font-variant-ligatures:normal;font-variant-caps:normal;font-variant-numeric:normal;font-variant-east-asian:normal;dominant-baseline:alphabetic;text-anchor:start;fill:#252525;fill-opacity:1;stroke:none">0.4</text>
  <text
     x="519"
     y="238"
     id="text201"
     style="font-style:normal;font-variant:normal;font-weight:bold;font-stretch:normal;font-size:24px;font-family:'Crimson Text';-inkscape-font-specification:'Crimson Text, Bold';font-variant-ligatures:normal;font-variant-caps:normal;font-variant-numeric:normal;font-variant-east-asian:normal;dominant-baseline:alphabetic;text-anchor:start;fill:#252525;fill-opacity:1;stroke:none">0.6</text>
  <text
     x="519"
     y="191"
     id="text207"
     style="font-style:normal;font-variant:normal;font-weight:bold;font-stretch:normal;font-size:24px;font-family:'Crimson Text';-inkscape-font-specification:'Crimson Text, Bold';font-variant-ligatures:normal;font-variant-caps:normal;font-variant-numeric:normal;font-variant-east-asian:normal;dominant-baseline:alphabetic;text-anchor:start;fill:#252525;fill-opacity:1;stroke:none">0.8</text>
  <text
     x="529"
     y="144"
     id="text213"
     style="font-style:normal;font-variant:normal;font-weight:bold;font-stretch:normal;font-size:24px;font-family:'Crimson Text';-inkscape-font-specification:'Crimson Text, Bold';font-variant-ligatures:normal;font-variant-caps:normal;font-variant-numeric:normal;font-variant-east-asian:normal;dominant-baseline:alphabetic;text-anchor:start;fill:#252525;fill-opacity:1;stroke:none">1</text>
  <text
     x="519"
     y="97"
     id="text219"
     style="font-style:normal;font-variant:normal;font-weight:bold;font-stretch:normal;font-size:24px;font-family:'Crimson Text';-inkscape-font-specification:'Crimson Text, Bold';font-variant-ligatures:normal;font-variant-caps:normal;font-variant-numeric:normal;font-variant-east-asian:normal;dominant-baseline:alphabetic;text-anchor:start;fill:#252525;fill-opacity:1;stroke:none">1.2</text>
  <text
     x="519"
     y="51"
     id="text225"
     style="font-style:normal;font-variant:normal;font-weight:bold;font-stretch:normal;font-size:24px;font-family:'Crimson Text';-inkscape-font-specification:'Crimson Text, Bold';font-variant-ligatures:normal;font-variant-caps:normal;font-variant-numeric:normal;font-variant-east-asian:normal;dominant-baseline:alphabetic;text-anchor:start;fill:#252525;fill-opacity:1;stroke:none">1.4</text>
  <text
     x="559"
     y="394"
     id="text231"
     style="font-style:normal;font-variant:normal;font-weight:bold;font-stretch:normal;font-size:24px;font-family:'Crimson Text';-inkscape-font-specification:'Crimson Text, Bold';font-variant-ligatures:normal;font-variant-caps:normal;font-variant-numeric:normal;font-variant-east-asian:normal;dominant-baseline:alphabetic;text-anchor:start;fill:#252525;fill-opacity:1;stroke:none">0</text>
  <path
     fill="none"
     stroke="#0000ff"
     paint-order="fill stroke markers"
     d="m 1,579.00026 v 0.0516 -0.0516 l 1,-0.0518 v 0 l 1,-0.052 v 0 l 1,-0.0522 v 0 l 1,-0.0524 v 0 l 1,-0.0525 v 0 l 1,-0.0527 v 0 l 1,-0.0529 v 0 l 1,-0.0531 v 0 l 1,-0.0533 v 0 l 1,-0.0535 v 0 l 1,-0.0537 v 0 l 1,-0.0539 v 0 l 1,-0.054 v 0 l 1,-0.0542 v 0 l 1,-0.0544 v 0 l 1,-0.0546 v 0 l 1,-0.0548 v 0 l 1,-0.055 v 0 l 1,-0.0552 v 0 l 1,-0.0554 v 0 l 1,-0.0556 v 0 l 1,-0.0558 v 0 l 1,-0.056 v 0 l 1,-0.0562 v 0 l 1,-0.0564 v 0 l 1,-0.0566 v 0 l 1,-0.0568 v 0 l 1,-0.057 v 0 l 1,-0.0572 v 0 l 1,-0.0574 v 0 l 1,-0.0577 v 0 l 1,-0.0579 v 0 l 1,-0.0581 v 0 l 1,-0.0583 v 0 l 1,-0.0585 v 0 l 1,-0.0587 v 0 l 1,-0.0589 v 0 l 1,-0.0592 v 0 l 1,-0.0594 v 0 l 1,-0.0596 v 0 l 1,-0.0598 v 0 l 1,-0.06 v 0 l 1,-0.0603 v 0 l 1,-0.0605 v 0 l 1,-0.0607 v 0 l 1,-0.0609 v 0 l 1,-0.0612 v 0 l 1,-0.0614 v 0 l 1,-0.0616 v 0 l 1,-0.0619 v 0 l 1,-0.0621 v 0 l 1,-0.0623 v 0 l 1,-0.0626 v 0 l 1,-0.0628 v 0 l 1,-0.0631 v 0 l 1,-0.0633 v 0 l 1,-0.0635 v 0 l 1,-0.0638 v 0 l 1,-0.064 v 0 l 1,-0.0643 v 0 l 1,-0.0645 v 0 l 1,-0.0648 v 0 l 1,-0.065 v 0 l 1,-0.0653 v 0 l 1,-0.0655 v 0 l 1,-0.0658 v 0 l 1,-0.0661 v 0 l 1,-0.0663 v 0 l 1,-0.0666 v 0 l 1,-0.0668 v 0 l 1,-0.0671 v 0 l 1,-0.0674 v 0 l 1,-0.0676 v 0 l 1,-0.0679 v 0 l 1,-0.0681 v 0 l 1,-0.0684 v 0 l 1,-0.0687 v 0 l 1,-0.069 v 0 l 1,-0.0692 v 0 l 1,-0.0695 v 0 l 1,-0.0698 v 0 l 1,-0.0701 v 0 l 1,-0.0704 v 0 l 1,-0.0707 v 0 l 1,-0.0709 v 0 l 1,-0.0712 v 0 l 1,-0.0715 v 0 l 1,-0.0718 v 0 l 1,-0.0721 v 0 l 1,-0.0724 v 0 l 1,-0.0727 v 0 l 1,-0.073 v 0 l 1,-0.0733 v 0 l 1,-0.0736 v 0 l 1,-0.0739 v 0 l 1,-0.0742 v 0 l 1,-0.0745 v 0 l 1,-0.0748 v 0 l 1,-0.0751 v 0 l 1,-0.0754 v 0 l 1,-0.0757 v 0 l 1,-0.0761 v 0 l 1,-0.0764 v 0 l 1,-0.0767 v 0 l 1,-0.077 v 0 l 1,-0.0773 v 0 l 1,-0.0777 v 0 l 1,-0.078 v 0 l 1,-0.0783 v 0 l 1,-0.0787 v 0 l 1,-0.079 v 0 l 1,-0.0793 v 0 l 1,-0.0797 v 0 l 1,-0.08 v 0 l 1,-0.0803 v 0 l 1,-0.0807 v 0 l 1,-0.081 v 0 l 1,-0.0814 v 0 l 1,-0.0817 v 0 l 1,-0.0821 v 0 l 1,-0.0824 v 0 l 1,-0.0828 v 0 l 1,-0.0831 v 0 l 1,-0.0835 v 0 l 1,-0.0839 v 0 l 1,-0.0842 v 0 l 1,-0.0846 v 0 l 1,-0.085 v 0 l 1,-0.0854 v 0 l 1,-0.0857 v 0 l 1,-0.0861 v 0 l 1,-0.0865 v 0 l 1,-0.0869 v 0 l 1,-0.0873 v 0 l 1,-0.0877 v 0 l 1,-0.0881 v 0 l 1,-0.0884 v 0 l 1,-0.0888 v 0 l 1,-0.0892 v 0 l 1,-0.0897 v 0 l 1,-0.0901 v 0 l 1,-0.0905 v 0 l 1,-0.0909 v 0 l 1,-0.0913 v 0 l 1,-0.0917 v 0 l 1,-0.0921 v 0 l 1,-0.0925 v 0 l 1,-0.093 v 0 l 1,-0.0934 v 0 l 1,-0.0938 v 0 l 1,-0.0943 v 0 l 1,-0.0947 v 0 l 1,-0.0951 v 0 l 1,-0.0956 v 0 l 1,-0.096 v 0 l 1,-0.0965 v 0 l 1,-0.0969 v 0 l 1,-0.0974 v 0 l 1,-0.0978 v 0 l 1,-0.0983 v 0 l 1,-0.0987 v 0 l 1,-0.0992 v 0 l 1,-0.0997 v 0 l 1,-0.10015 v 0 l 1,-0.10063 v 0 l 1,-0.1011 v 0 l 1,-0.10159 v 0 l 1,-0.10208 v 0 l 1,-0.10257 v 0 l 1,-0.10305 v 0 l 1,-0.10356 v 0 l 1,-0.10405 v 0 l 1,-0.10456 v 0 l 1,-0.10507 v 0 l 1,-0.10557 v 0 l 1,-0.10609 v 0 l 1,-0.10661 v 0 l 1,-0.10713 v 0 l 1,-0.10765 v 0 l 1,-0.10818 v 0 l 1,-0.10872 v 0 l 1,-0.10925 v 0 l 1,-0.10979 v 0 l 1,-0.11034 v 0 l 1,-0.11089 v 0 l 1,-0.11143 v 0 l 1,-0.112 v 0 l 1,-0.11255 v 0 l 1,-0.11312 v 0 l 1,-0.11369 v 0 l 1,-0.11426 v 0 l 1,-0.11483 v 0 l 1,-0.11542 v 0 l 1,-0.116 v 0 l 1,-0.11659 v 0 l 1,-0.11719 v 0 l 1,-0.11779 v 0 l 1,-0.11838 v 0 l 1,-0.119 v 0 l 1,-0.11961 v 0 l 1,-0.12022 v 0 l 1,-0.12085 v 0 l 1,-0.12147 v 0 l 1,-0.1221 v 0 l 1,-0.12274 v 0 l 1,-0.12337 v 0 l 1,-0.12403 v 0 l 1,-0.12467 v 0 l 1,-0.12532 v 0 l 1,-0.12599 v 0 l 1,-0.12665 v 0 l 1,-0.12732 v 0 l 1,-0.128 v 0 l 1,-0.12868 v 0 l 1,-0.12936 v 0 l 1,-0.13005 v 0 l 1,-0.13075 v 0 l 1,-0.13145 v 0 l 1,-0.13216 v 0 l 1,-0.13287 v 0 l 1,-0.13359 v 0 l 1,-0.13431 v 0 l 1,-0.13504 v 0 l 1,-0.13578 v 0 l 1,-0.13651 v 0 l 1,-0.13727 v 0 l 1,-0.13802 v 0 l 1,-0.13877 v 0 l 1,-0.13954 v 0 l 1,-0.14031 v 0 l 1,-0.14109 v 0 l 1,-0.14187 v 0 l 1,-0.14266 v 0 l 1,-0.14346 v 0 l 1,-0.14426 v 0 l 1,-0.14506 v 0 l 1,-0.14589 v 0 l 1,-0.1467 v 0 l 1,-0.14753 v 0 l 1,-0.14837 v 0 l 1,-0.14921 v 0 l 1,-0.15006 v 0 l 1,-0.15091 v 0 l 1,-0.15178 v 0 l 1,-0.15265 v 0 l 1,-0.15352 v 0 l 1,-0.15441 v 0 l 1,-0.1553 v 0 l 1,-0.1562 v 0 l 1,-0.15711 v 0 l 1,-0.15802 v 0 l 1,-0.15894 v 0 l 1,-0.15988 v 0 l 1,-0.16081 v 0 l 1,-0.16175 v 0 l 1,-0.16271 v 0 l 1,-0.16367 v 0 l 1,-0.16464 v 0 l 1,-0.16562 v 0 l 1,-0.1666 v 0 l 1,-0.1676 v 0 l 1,-0.1686 v 0 l 1,-0.16961 v 0 l 1,-0.17064 v 0 l 1,-0.17166 v 0 l 1,-0.1727 v 0 l 1,-0.17374 v 0 l 1,-0.17481 v 0 l 1,-0.17587 v 0 l 1,-0.17694 v 0 l 1,-0.17802 v 0 l 1,-0.17912 v 0 l 1,-0.18023 v 0 l 1,-0.18133 v 0 l 1,-0.18246 v 0 l 1,-0.18359 v 0 l 1,-0.18473 v 0 l 1,-0.18588 v 0 l 1,-0.18705 v 0 l 1,-0.18822 v 0 l 1,-0.1894 v 0 l 1,-0.1906 v 0 l 1,-0.1918 v 0 l 1,-0.19302 v 0 l 1,-0.19424 v 0 l 1,-0.19548 v 0 l 1,-0.19673 v 0 l 1,-0.19799 v 0 l 1,-0.19926 v 0 l 1,-0.20055 v 0 l 1,-0.20183 v 0 l 1,-0.20315 v 0 l 1,-0.20446 v 0 l 1,-0.2058 v 0 l 1,-0.20714 v 0 l 1,-0.20849 v 0 l 1,-0.20986 v 0 l 1,-0.21124 v 0 l 1,-0.21263 v 0 l 1,-0.21404 v 0 l 1,-0.21546 v 0 l 1,-0.2169 v 0 l 1,-0.21833 v 0 l 1,-0.2198 v 0 l 1,-0.22127 v 0 l 1,-0.22276 v 0 l 1,-0.22426 v 0 l 1,-0.22577 v 0 l 1,-0.22731 v 0 l 1,-0.22884 v 0 l 1,-0.23041 v 0 l 1,-0.23198 v 0 l 1,-0.23357 v 0 l 1,-0.23518 v 0 l 1,-0.23679 v 0 l 1,-0.23843 v 0 l 1,-0.24008 v 0 l 1,-0.24174 v 0 l 1,-0.24343 v 0 l 1,-0.24513 v 0 l 1,-0.24685 v 0 l 1,-0.24857 v 0 l 1,-0.25033 v 0 l 1,-0.25209 v 0 l 1,-0.25388 v 0 l 1,-0.25568 v 0 l 1,-0.25749 v 0 l 1,-0.25934 v 0 l 1,-0.26118 v 0 l 1,-0.26307 v 0 l 1,-0.26495 v 0 l 1,-0.26687 v 0 l 1,-0.26879 v 0 l 1,-0.27074 v 0 l 1,-0.27272 v 0 l 1,-0.2747 v 0 l 1,-0.27671 v 0 l 1,-0.27873 v 0 l 1,-0.28079 v 0 l 1,-0.28286 v 0 l 1,-0.28494 v 0 l 1,-0.28706 v 0 l 1,-0.28919 v 0 l 1,-0.29134 v 0 l 1,-0.29353 v 0 l 1,-0.29572 v 0 l 1,-0.29794 v 0 l 1,-0.30018 v 0 l 1,-0.30245 v 0 l 1,-0.30475 v 0 l 1,-0.30705 v 0 l 1,-0.3094 v 0 l 1,-0.31175 v 0 l 1,-0.31414 v 0 l 1,-0.31655 v 0 l 1,-0.31899 v 0 l 1,-0.32145 v 0 l 1,-0.32393 v 0 l 1,-0.32645 v 0 l 1,-0.32898 v 0 l 1,-0.33155 v 0 l 1,-0.33414 v 0 l 1,-0.33677 v 0 l 1,-0.3394 v 0 l 1,-0.34208 v 0 l 1,-0.34479 v 0 l 1,-0.34751 v 0 l 1,-0.35027 v 0 l 1,-0.35306 v 0 l 1,-0.35588 v 0 l 1,-0.35873 v 0 l 1,-0.3616 v 0 l 1,-0.36452 v 0 l 1,-0.36745 v 0 l 1,-0.37042 v 0 l 1,-0.37342 v 0 l 1,-0.37646 v 0 l 1,-0.37952 v 0 l 1,-0.38262 v 0 l 1,-0.38575 v 0 l 1,-0.38892 v 0 l 1,-0.39212 v 0 l 1,-0.39535 v 0 l 1,-0.39861 v 0 l 1,-0.40192 v 0 l 1,-0.40526 v 0 l 1,-0.40862 v 0 l 1,-0.41204 v 0 l 1,-0.41549 v 0 l 1,-0.41896 v 0 l 1,-0.42249 v 0 l 1,-0.42604 v 0 l 1,-0.42964 v 0 l 1,-0.43327 v 0 l 1,-0.43695 v 0 l 1,-0.44066 v 0 l 1,-0.44441 v 0 l 1,-0.4482 v 0 l 1,-0.45204 v 0 l 1,-0.45591 v 0 l 1,-0.45982 v 0 l 1,-0.46378 v 0 l 1,-0.46778 v 0 l 1,-0.47182 v 0 l 1,-0.47591 v 0 l 1,-0.48003 v 0 l 1,-0.48421 v 0 l 1,-0.48842 v 0 l 1,-0.49268 v 0 l 1,-0.49699 v 0 l 1,-0.50134 v 0 l 1,-0.50574 v 0 l 1,-0.51019 v 0 l 1,-0.51467 v 0 l 1,-0.51921 v 0 l 1,-0.5238 v 0 l 1,-0.52843 v 0 l 1,-0.53311 v 0 l 1,-0.53784 v 0 l 1,-0.54262 v 0 l 1,-0.54745 v 0 l 1,-0.55233 v 0 l 1,-0.55725 v 0 l 1,-0.56224 v 0 l 1,-0.56726 v 0 l 1,-0.57235 v 0 l 1,-0.57748 v 0 l 1,-0.58266 v 0 l 1,-0.5879 v 0 l 1,-0.59319 v 0 l 1,-0.59853 v 0 l 1,-0.60393 v 0 l 1,-0.60937 v 0 l 1,-0.61487 v 0 l 1,-0.62043 v 0 l 1,-0.62604 v 0 l 1,-0.6317 v 0 l 1,-0.63742 v 0 l 1,-0.64319 v 0 l 1,-0.64901 v 0 l 1,-0.65489 v 0 l 1,-0.66083 v 0 l 1,-0.66682 v 0 l 1,-0.67287 v 0 l 1,-0.67896 v 0 l 1,-0.68511 v 0 l 1,-0.69133 v 0 l 1,-0.69759 v 0 l 1,-0.70391 v 0 l 1,-0.71028 v 0 l 1,-0.71671 v 0 l 1,-0.72318 v 0 l 1,-0.72973 v 0 l 1,-0.73631 v 0 l 1,-0.74295 v 0 l 1,-0.74965 v 0 l 1,-0.75639 v 0 l 1,-0.76319 v 0 l 1,-0.77005 v 0 l 1,-0.77694 v 0 l 1,-0.7839 v 0 l 1,-0.7909 v 0 l 1,-0.79795 v 0 l 1,-0.80505 v 0 l 1,-0.8122 v 0 l 1,-0.81939 v 0 l 1,-0.82663 v 0 l 1,-0.83391 v 0 l 1,-0.84125 v 0 l 1,-0.84861 v 0 l 1,-0.85603 v 0 l 1,-0.86348 v 0 l 1,-0.87098 v 0 l 1,-0.87851 v 0 l 1,-0.88607 v 0 l 1,-0.89367 v 0 l 1,-0.90131 v 0 l 1,-0.90898 v 0 l 1,-0.91667 v 0 l 1,-0.92439 v 0 l 1,-0.93215 v 0 l 1,-0.93992 v 0 l 1,-0.94772 v 0 l 1,-0.95553 v 0 l 1,-0.96337 v 0 l 1,-0.97122 v 0 l 1,-0.97908 v 0 l 1,-0.98695 v 0 l 1,-0.99484 v 0 l 1,-1.00272 v 0 l 1,-1.01061 v 0 l 1,-1.01849 v 0 l 1,-1.02639 v 0 l 1,-1.03426 v 0 l 1,-1.04213 v 0 l 1,-1.04998 v 0 l 1,-1.05783 v 0 l 1,-1.06564 v 0 l 1,-1.07345 v 0 l 1,-1.08121 v 0 l 1,-1.08896 v 0 l 1,-1.09666 v 0 l 1,-1.10433 v 0 l 1,-1.11196 v 0 l 1,-1.11954 v 0 l 1,-1.12707 v 0 l 1,-1.13456 v 0 l 1,-1.14197 v 0 l 1,-1.14933 v 0 l 1,-1.15662 v 0 l 1,-1.16385 v 0 l 1,-1.17099 v 0 l 1,-1.17805 v 0 l 1,-1.18504 v 0 l 1,-1.19194 v 0 l 1,-1.19873 v 0 l 1,-1.20544 v 0 l 1,-1.21203 v 0 l 1,-1.21853 v 0 l 1,-1.22491 v 0 l 1,-1.23118 v 0 l 1,-1.23732 v 0 l 1,-1.24334 v 0 l 1,-1.24922 v 0 l 1,-1.25499 v 0 l 1,-1.26059 v 0 l 1,-1.26607 v 0 l 1,-1.2714 v 0 l 1,-1.27656 v 0 l 1,-1.28158 v 0 l 1,-1.28644 v 0 l 1,-1.29112 v 0 l 1,-1.29564 v 0 l 1,-1.3 v 0 l 1,-1.30416 v 0 l 1,-1.30815 v 0 l 1,-1.31197 v 0 l 1,-1.31558 v 0 l 1,-1.31901 v 0 l 1,-1.32225 v 0 l 1,-1.32528 v 0 l 1,-1.32813 v 0 l 1,-1.33076 v 0 l 1,-1.3332 v 0 l 1,-1.33543 v 0 l 1,-1.33744 v 0 l 1,-1.33924 v 0 l 1,-1.34084 v 0 l 1,-1.34222 v 0 l 1,-1.34338 v 0 l 1,-1.34433 v 0 l 1,-1.34506 v 0 l 1,-1.34557 v 0 l 1,-1.34587 v 0 l 1,-1.34593 v 0 l 1,-1.34579 v 0 l 1,-1.34542 v 0 l 1,-1.34484 v 0 l 1,-1.34404 v 0 l 1,-1.34302 v 0 l 1,-1.34178 v 0 l 1,-1.34034 v 0 l 1,-1.33866 v 0 l 1,-1.3368 v 0 l 1,-1.3347 v 0 l 1,-1.33241 v 0 l 1,-1.32991 v 0 l 1,-1.3272 v 0 l 1,-1.32429 v 0 l 1,-1.3212 v 0 l 1,-1.31789 v 0 l 1,-1.31439 v 0 l 1,-1.31072 v 0 l 1,-1.30684 v 0 l 1,-1.30279 v 0 l 1,-1.29857 v 0 l 1,-1.29415 v 0 l 1,-1.28958 v 0 l 1,-1.28483 v 0 l 1,-1.27993 v 0 l 1,-1.27486 v 0 l 1,-1.26963 v 0 l 1,-1.26427 v 0 l 1,-1.25874 v 0 l 1,-1.25308 v 0 l 1,-1.24728 v 0 l 1,-1.24134 v 0 l 1,-1.23529 v 0 l 1,-1.2291 v 0 l 1,-1.2228 v 0 l 1,-1.21637 v 0 l 1,-1.20985 v 0 l 1,-1.20321 v 0 l 1,-1.19648 v 0 l 1,-1.18965 v 0 l 1,-1.18272 v 0 l 1,-1.17571 v 0 l 1,-1.16861 v 0 l 1,-1.16145 v 0 l 1,-1.1542 v 0 l 1,-1.14689 v 0 l 1,-1.1395 v 0 l 1,-1.13207 v 0 l 1,-1.12456 v 0 l 1,-1.11702 v 0 l 1,-1.10943 v 0 l 1,-1.10177 v 0 l 1,-1.0941 v 0 l 1,-1.08638 v 0 l 1,-1.07863 v 0 l 1,-1.07084 v 0 l 1,-1.06305 v 0 l 1,-1.05521 v 0 l 1,-1.04737 v 0 l 1,-1.03951 v 0 l 1,-1.03163 v 0 l 1,-1.02376 v 0 l 1,-1.01587 v 0 l 1,-1.00798 v 0 l 1,-1.00009 v 0 l 1,-0.9922 v 0 l 1,-0.98433 v 0 l 1,-0.97646 v 0 l 1,-0.9686 v 0 l 1,-0.96076 v 0 l 1,-0.95292 v 0 l 1,-0.94512 v 0 l 1,-0.93733 v 0 l 1,-0.92955 v 0 l 1,-0.92182 v 0 l 1,-0.91411 v 0 l 1,-0.90641 v 0 l 1,-0.89876 v 0 l 1,-0.89114 v 0 l 1,-0.88354 v 0 l 1,-0.876 v 0 l 1,-0.86847 v 0 l 1,-0.86099 v 0 l 1,-0.85356 v 0 l 1,-0.84615 v 0 l 1,-0.8388 v 0 l 1,-0.83148 v 0 l 1,-0.82421 v 0 l 1,-0.81699 v 0 l 1,-0.80981 v 0 l 1,-0.80268 v 0 l 1,-0.79559 v 0 l 1,-0.78856 v 0 l 1,-0.78158 v 0 l 1,-0.77463 v 0 l 1,-0.76776 v 0 l 1,-0.76092 v 0 l 1,-0.75414 v 0 l 1,-0.74741 v 0 l 1,-0.74073 v 0 l 1,-0.73411 v 0 l 1,-0.72754 v 0 l 1,-0.72102 v 0 l 1,-0.71456 v 0 l 1,-0.70815 v 0 l 1,-0.70179 v 0 l 1,-0.6955 v 0 l 1,-0.68925 v 0 l 1,-0.68306 v 0 l 1,-0.67692 v 0 l 1,-0.67085 v 0 l 1,-0.66481 v 0 l 1,-0.65885 v 0 l 1,-0.65293 v 0 l 1,-0.64706 v 0 l 1,-0.64126 v 0 l 1,-0.63551 v 0 l 1,-0.6298 v 0 l 1,-0.62416 v 0 l 1,-0.61857 v 0 l 1,-0.61304 v 0 l 1,-0.60755 v 0 l 1,-0.60212 v 0 l 1,-0.59674 v 0 l 1,-0.59143 v 0 l 1,-0.58614 v 0 l 1,-0.58093 v 0 l 1,-0.57577 v 0 l 1,-0.57064 v 0 l 1,-0.56559 v 0 l 1,-0.56057 v 0 l 1,-0.5556 v 0 l 1,-0.5507 v 0 l 1,-0.54583 v 0 l 1,-0.54103 v 0 l 1,-0.53625 v 0 l 1,-0.53155 v 0 l 1,-0.52688 v 0 l 1,-0.52226 v 0 l 1,-0.5177 v 0 l 1,-0.51317 v 0 l 1,-0.50869 v 0 l 1,-0.50427 v 0 l 1,-0.49989 v 0 l 1,-0.49555 v 0 l 1,-0.49125 v 0 l 1,-0.48702 v 0 l 1,-0.48281 v 0 l 1,-0.47865 v 0 l 1,-0.47454 v 0 l 1,-0.47047 v 0 l 1,-0.46644 v 0 l 1,-0.46246 v 0 l 1,-0.45851 v 0 l 1,-0.45462 v 0 l 1,-0.45075 v 0 l 1,-0.44693 v 0 l 1,-0.44316 v 0 l 1,-0.43941 v 0 l 1,-0.43572 v 0 l 1,-0.43206 v 0 l 1,-0.42844 v 0 l 1,-0.42485 v 0 l 1,-0.42131 v 0 l 1,-0.4178 v 0 l 1,-0.41433 v 0 l 1,-0.4109 v 0 l 1,-0.4075 v 0 l 1,-0.40414 v 0 l 1,-0.40081 v 0 l 1,-0.39752 v 0 l 1,-0.39427 v 0 l 1,-0.39105 v 0 l 1,-0.38786 v 0 l 1,-0.3847 v 0 l 1,-0.38158 v 0 l 1,-0.3785 v 0 l 1,-0.37544 v 0 l 1,-0.37242 v 0 l 1,-0.36943 v 0 l 1,-0.36647 v 0 l 1,-0.36354 v 0 l 1,-0.36064 v 0 l 1,-0.35777 v 0 l 1,-0.35494 v 0 l 1,-0.35213 v 0 l 1,-0.34935 v 0 l 1,-0.3466 v 0 l 1,-0.34388 v 0 l 1,-0.34118 v 0 l 1,-0.33853 v 0 l 1,-0.33588 v 0 l 1,-0.33328 v 0 l 1,-0.33069 v 0 l 1,-0.32813 v 0 l 1,-0.32561 v 0 l 1,-0.3231 v 0 l 1,-0.32063 v 0 l 1,-0.31817 v 0 l 1,-0.31574 v 0 l 1,-0.31335 v 0 l 1,-0.31096 v 0 l 1,-0.30861 v 0 l 1,-0.30629 v 0 l 1,-0.30397 v 0 l 1,-0.3017 v 0 l 1,-0.29943 v 0 l 1,-0.2972 v 0 l 1,-0.29498 v 0 l 1,-0.2928 v 0 l 1,-0.29062 v 0 l 1,-0.28848 v 0 l 1,-0.28635 v 0 l 1,-0.28425 v 0 l 1,-0.28216 v 0 l 1,-0.2801 v 0 l 1,-0.27806 v 0 l 1,-0.27604 v 0 l 1,-0.27403 v 0 l 1,-0.27206 v 0 l 1,-0.27009 v 0 l 1,-0.26815 v 0 l 1,-0.26622 v 0 l 1,-0.26433 v 0 l 1,-0.26243 v 0 l 1,-0.26057 v 0 l 1,-0.25872 v 0 l 1,-0.25689 v 0 l 1,-0.25507 v 0 l 1,-0.25328 v 0 l 1,-0.2515 v 0 l 1,-0.24974 v 0 l 1,-0.248 v 0 l 1,-0.24627 v 0 l 1,-0.24456 v 0 l 1,-0.24287 v 0 l 1,-0.24119 v 0 l 1,-0.23953 v 0 l 1,-0.23788 v 0 l 1,-0.23625 v 0 l 1,-0.23464 v 0 l 1,-0.23304 v 0 l 1,-0.23145 v 0 l 1,-0.22989 v 0 l 1,-0.22833 v 0 l 1,-0.22679 v 0 l 1,-0.22527 v 0 l 1,-0.22376 v 0 l 1,-0.22226 v 0 l 1,-0.22077 v 0 l 1,-0.21931 v 0 l 1,-0.21786 v 0 l 1,-0.21641 v 0 l 1,-0.21499 v 0 l 1,-0.21357 v 0 l 1,-0.21216 v 0 l 1,-0.21078 v 0 l 1,-0.20941 v 0 l 1,-0.20804 v 0 l 1,-0.20668 v 0 l 1,-0.20535 v 0 l 1,-0.20403 v 0 l 1,-0.20271 v 0 l 1,-0.2014 v 0 l 1,-0.20012 v 0 l 1,-0.19883 v 0 l 1,-0.19757 v 0 l 1,-0.19631 v 0 l 1,-0.19507 v 0 l 1,-0.19383 v 0 l 1,-0.19261 v 0 l 1,-0.1914 v 0 l 1,-0.1902 v 0 l 1,-0.18901 v 0 l 1,-0.18783 v 0 l 1,-0.18665 v 0 l 1,-0.1855 v 0 l 1,-0.18435 v 0 l 1,-0.18321 v 0 l 1,-0.18208 v 0 l 1,-0.18097 v 0 l 1,-0.17985 v 0 l 1,-0.17875 v 0 l 1,-0.17767 v 0 l 1,-0.17658 v 0 l 1,-0.17551 v 0 l 1,-0.17445 v 0 l 1,-0.1734 v 0 l 1,-0.17235 v 0 l 1,-0.17132 v 0 l 1,-0.17029 v 0 l 1,-0.16928 v 0 l 1,-0.16826 v 0 l 1,-0.16727 v 0 l 1,-0.16627 v 0 l 1,-0.16529 v 0 l 1,-0.16432 v 0 l 1,-0.16335 v 0 l 1,-0.16239 v 0 l 1,-0.16144 v 0 l 1,-0.16049 v 0 l 1,-0.15956 v 0 l 1,-0.15864 v 0 l 1,-0.15772 v 0 l 1,-0.1568 v 0 l 1,-0.1559 v 0 l 1,-0.155 v 0 l 1,-0.15412 v 0 l 1,-0.15323 v 0 l 1,-0.15235 v 0 l 1,-0.15149 v 0 l 1,-0.15063 v 0 l 1,-0.14978 v 0 l 1,-0.14893 v 0 l 1,-0.14808 v 0 l 1,-0.14726 v 0 l 1,-0.14643 v 0 l 1,-0.14561 v 0 l 1,-0.1448 v 0 l 1,-0.14399 v 0 l 1,-0.14319 v 0 l 1,-0.14239 v 0 l 1,-0.14161 v 0 l 1,-0.14083 v 0 l 1,-0.14005 v 0 l 1,-0.13929 v 0 l 1,-0.13852 v 0 l 1,-0.13777 v 0 l 1,-0.13701 v 0 l 1,-0.13627 v 0 l 1,-0.13553 v 0 l 1,-0.1348 v 0 l 1,-0.13407 v 0 l 1,-0.13335 v 0 l 1,-0.13263 v 0 l 1,-0.13192 v 0 l 1,-0.13122 v 0 l 1,-0.13051 v 0 l 1,-0.12983 v 0 l 1,-0.12913 v 0 l 1,-0.12845 v 0 l 1,-0.12777 v 0 l 1,-0.1271 v 0 l 1,-0.12642 v 0 l 1,-0.12577 v 0 l 1,-0.12511 v 0 l 1,-0.12445 v 0 l 1,-0.12381 v 0 l 1,-0.12316 v 0 l 1,-0.12253 v 0 l 1,-0.12189 v 0 l 1,-0.12126 v 0 l 1,-0.12064 v 0 l 1,-0.12002 v 0 l 1,-0.1194 v 0 l 1,-0.11879 v 0 l 1,-0.11819 v 0 l 1,-0.11758 v 0 l 1,-0.11699 v 0 l 1,-0.1164 v 0 l 1,-0.1158 v 0 l 1,-0.11523 v 0 l 1,-0.11464 v 0 l 1,-0.11407 v 0 l 1,-0.1135 v 0 l 1,-0.11293 v 0 l 1,-0.11236 v 0 l 1,-0.11181 v 0 l 1,-0.11125 v 0 l 1,-0.1107 v 0 l 1,-0.11016 v 0 l 1,-0.10961 v 0 l 1,-0.10907 v 0 l 1,-0.10854 v 0 l 1,-0.10801 v 0 l 1,-0.10748 v 0 l 1,-0.10695 v 0 l 1,-0.10643 v 0 l 1,-0.10592 v 0 l 1,-0.10541 v 0 l 1,-0.10489 v 0 l 1,-0.10439 v 0 l 1,-0.10389 v 0 l 1,-0.10339 v 0 l 1,-0.10289 v 0 l 1,-0.1024 v 0 l 1,-0.10192 v 0 l 1,-0.10143 v 0 l 1,-0.10094 v 0 l 1,-0.10047 v 0 l 1,-0.1 v 0 l 1,-0.0995 v 0 l 1,-0.0991 v 0 l 1,-0.0986 v 0 l 1,-0.0981 v 0 l 1,-0.0977 v 0 l 1,-0.0972 v 0 l 1,-0.0968 v 0 l 1,-0.0963 v 0 l 1,-0.0959 v 0 l 1,-0.0954 v 0 l 1,-0.095 v 0 l 1,-0.0945 v 0 l 1,-0.0941 v 0 l 1,-0.0937 v 0 l 1,-0.0932 v 0 l 1,-0.0928 v 0 l 1,-0.0924 v 0 l 1,-0.092 v 0 l 1,-0.0916 v 0 l 1,-0.0911 v 0 l 1,-0.0907 v 0 l 1,-0.0903 v 0 l 1,-0.0899 v 0 l 1,-0.0895 v 0 l 1,-0.0891 v 0 l 1,-0.0887 v 0 l 1,-0.0883 v 0 l 1,-0.0879 v 0 l 1,-0.0875 v 0 l 1,-0.0872 v 0 l 1,-0.0868 v 0 l 1,-0.0864 v 0 l 1,-0.086 v 0 l 1,-0.0856 v 0 l 1,-0.0852 v 0 l 1,-0.0849 v 0 l 1,-0.0845 v 0 l 1,-0.0841 v 0 l 1,-0.0838 v 0 l 1,-0.0834 v 0 l 1,-0.083 v 0 l 1,-0.0827 v 0 l 1,-0.0823 v 0 l 1,-0.082 v 0 l 1,-0.0816 v 0 l 1,-0.0813 v 0 l 1,-0.0809 v 0 l 1,-0.0806 v 0 l 1,-0.0802 v 0 l 1,-0.0799 v 0 l 1,-0.0795 v 0 l 1,-0.0792 v 0 l 1,-0.0789 v 0 l 1,-0.0785 v 0 l 1,-0.0782 v 0 l 1,-0.0779 v 0 l 1,-0.0776 v 0 l 1,-0.0772 v 0 l 1,-0.0769 v 0 l 1,-0.0766 v 0 l 1,-0.0763 v 0 l 1,-0.0759 v 0 l 1,-0.0756 v 0 l 1,-0.0753 v 0 l 1,-0.075 v 0 l 1,-0.0747 v 0 l 1,-0.0744 v 0 l 1,-0.0741 v 0 l 1,-0.0738 v 0 l 1,-0.0735 v 0 l 1,-0.0732 v 0 l 1,-0.0729 v 0 l 1,-0.0726 v 0 l 1,-0.0723 v 0 l 1,-0.072 v 0 l 1,-0.0717 v 0 l 1,-0.0714 v 0 l 1,-0.0711 v 0 l 1,-0.0708 v 0 l 1,-0.0705 v 0 l 1,-0.0703 v 0 l 1,-0.07 v 0 l 1,-0.0697 v 0 l 1,-0.0694 v 0 l 1,-0.0692 v 0 l 1,-0.0689 v 0 l 1,-0.0686 v 0 l 1,-0.0683 v 0 l 1,-0.0681 v 0 l 1,-0.0678 v 0 l 1,-0.0675 v 0 l 1,-0.0673 v 0 l 1,-0.067 v 0 l 1,-0.0667 v 0 l 1,-0.0665 v 0 l 1,-0.0662 v 0 l 1,-0.066 v 0 l 1,-0.0657 v 0 l 1,-0.0654 v 0 l 1,-0.0652 v 0 l 1,-0.0649 v 0 l 1,-0.0647 v 0 l 1,-0.0644 v 0 l 1,-0.0642 v 0 l 1,-0.0639 v 0 l 1,-0.0637 v 0 l 1,-0.0635 v 0 l 1,-0.0632 v 0 l 1,-0.063 v 0 l 1,-0.0627 v 0 l 1,-0.0625 v 0 l 1,-0.0623 v 0 l 1,-0.062 v 0 l 1,-0.0618 v 0 l 1,-0.0616 v 0 l 1,-0.0613 v 0 l 1,-0.0611 v 0 l 1,-0.0609 v 0 l 1,-0.0606 v 0 l 1,-0.0604 v 0 l 1,-0.0602 v 0 l 1,-0.06 v 0 l 1,-0.0597 v 0 l 1,-0.0595 v 0 l 1,-0.0593 v 0 l 1,-0.0591 v 0 l 1,-0.0589 v 0 l 1,-0.0587 v 0 l 1,-0.0584 v 0 l 1,-0.0582 v 0 l 1,-0.058 v 0 l 1,-0.0578 v 0 l 1,-0.0576 v 0 l 1,-0.0574 v 0 l 1,-0.0572 v 0 l 1,-0.057 v 0 l 1,-0.0567 v 0 l 1,-0.0565 v 0 l 1,-0.0564 v 0 l 1,-0.0561 v 0 l 1,-0.0559 v 0 l 1,-0.0557 v 0 l 1,-0.0555 v 0 l 1,-0.0553 v 0 l 1,-0.0551 v 0 l 1,-0.0549 v 0 l 1,-0.0548 v 0 l 1,-0.0546 v 0 l 1,-0.0544 v 0 l 1,-0.0542 v 0 l 1,-0.054 v 0 l 1,-0.0538 v 0 l 1,-0.0536 v 0 l 1,-0.0534 v 0 l 1,-0.0532 v 0 l 1,-0.053 v 0 l 1,-0.0528 v 0 l 1,-0.0527 v 0 l 1,-0.0525 v 0 l 1,-0.0523 v 0 l 1,-0.0521 v 0 l 1,-0.0519 v 0 l 1,-0.0517 v 0 l 1,-0.0516 v 0 l 1,-0.0514 v 0 l 1,-0.0512 v 0 l 1,-0.051 v 0 l 1,-0.0509 v 0 l 1,-0.0507 v 0 l 1,-0.0505 v 0 l 1,-0.0504 v 0 l 1,-0.0502 v 0 l 1,-0.05 v 0 l 1,-0.0498 v 0 l 1,-0.0497 v 0 l 1,-0.0495 v 0 l 1,-0.0493 v 0 l 1,-0.0492 v 0 l 1,-0.049 v 0 l 1,-0.0488 v 0 l 1,-0.0487 v 0 l 1,-0.0485 v 0 l 1,-0.0483 v 0 l 1,-0.0482 v 0 l 1,-0.048 v 0 l 1,-0.0479 v 0 l 1,-0.0477 v 0 l 1,-0.0475 v 0 l 1,-0.0474 v 0 l 1,-0.0472 v 0 l 1,-0.0471 v 0 l 1,-0.0469 v 0 l 1,-0.0468 v 0 l 1,-0.0466 v 0 l 1,-0.0464 v 0 l 1,-0.0463 v 0 l 1,-0.0461 v 0 l 1,-0.046 v 0 l 1,-0.0458 v 0 l 1,-0.0457 v 0 l 1,-0.0455 v 0 l 1,-0.0454 v 0 l 1,-0.0452 v 0 l 1,-0.0451 v 0 l 1,-0.045 v 0 l 1,-0.0448 v 0 l 1,-0.0447 v 0 l 1,-0.0445 v 0 l 1,-0.0444 v 0 l 1,-0.0442 v 0 l 1,-0.0441 v 0 l 1,-0.0439 v 0 l 1,-0.0438 v 0 l 1,-0.0437 v 0 l 1,-0.0435 v 0 l 1,-0.0434 v 0 l 1,-0.0433 v 0 l 1,-0.0431 v 0 l 1,-0.043 v 0 l 1,-0.0428 v 0 l 1,-0.0427 v 0 l 1,-0.0426 v 0 l 1,-0.0424 v 0 l 1,-0.0423 v 0 l 1,-0.0422"
     stroke-opacity="1"
     stroke-linecap="round"
     stroke-linejoin="round"
     stroke-miterlimit="10"
     stroke-width="3.5"
     id="path233"
     clip-path="url(#clipPath805)" />
  <text
     x="1083.1902"
     y="152.16653"
     id="text235"
     style="font-style:italic;font-variant:normal;font-weight:bold;font-stretch:normal;font-size:37.3333px;font-family:'Crimson Text';-inkscape-font-specification:'Crimson Text, Bold Italic';font-variant-ligatures:normal;font-variant-caps:normal;font-variant-numeric:normal;font-variant-east-asian:normal;dominant-baseline:alphabetic;text-anchor:start;fill:#0000ff;fill-opacity:1;stroke:none">f(x)</text>
  <path
     fill="none"
     stroke="#ff0000"
     paint-order="fill stroke markers"
     d="m 1,365.13997 v 0.0311 -0.0311 l 1,-0.0313 v 0 l 1,-0.0315 v 0 l 1,-0.0316 v 0 l 1,-0.0318 v 0 l 1,-0.032 v 0 l 1,-0.0321 v 0 l 1,-0.0323 v 0 l 1,-0.0325 v 0 l 1,-0.0326 v 0 l 1,-0.0328 v 0 l 1,-0.033 v 0 l 1,-0.0331 v 0 l 1,-0.0333 v 0 l 1,-0.0335 v 0 l 1,-0.0337 v 0 l 1,-0.0339 v 0 l 1,-0.034 v 0 l 1,-0.0342 v 0 l 1,-0.0344 v 0 l 1,-0.0346 v 0 l 1,-0.0348 v 0 l 1,-0.0349 v 0 l 1,-0.0351 v 0 l 1,-0.0353 v 0 l 1,-0.0355 v 0 l 1,-0.0357 v 0 l 1,-0.0359 v 0 l 1,-0.0361 v 0 l 1,-0.0363 v 0 l 1,-0.0365 v 0 l 1,-0.0367 v 0 l 1,-0.0369 v 0 l 1,-0.0371 v 0 l 1,-0.0373 v 0 l 1,-0.0375 v 0 l 1,-0.0377 v 0 l 1,-0.0379 v 0 l 1,-0.0381 v 0 l 1,-0.0383 v 0 l 1,-0.0385 v 0 l 1,-0.0387 v 0 l 1,-0.0389 v 0 l 1,-0.0392 v 0 l 1,-0.0394 v 0 l 1,-0.0396 v 0 l 1,-0.0398 v 0 l 1,-0.04 v 0 l 1,-0.0403 v 0 l 1,-0.0405 v 0 l 1,-0.0407 v 0 l 1,-0.0409 v 0 l 1,-0.0412 v 0 l 1,-0.0414 v 0 l 1,-0.0416 v 0 l 1,-0.0419 v 0 l 1,-0.0421 v 0 l 1,-0.0423 v 0 l 1,-0.0426 v 0 l 1,-0.0428 v 0 l 1,-0.0431 v 0 l 1,-0.0433 v 0 l 1,-0.0436 v 0 l 1,-0.0438 v 0 l 1,-0.044 v 0 l 1,-0.0443 v 0 l 1,-0.0446 v 0 l 1,-0.0448 v 0 l 1,-0.0451 v 0 l 1,-0.0453 v 0 l 1,-0.0456 v 0 l 1,-0.0459 v 0 l 1,-0.0461 v 0 l 1,-0.0464 v 0 l 1,-0.0467 v 0 l 1,-0.0469 v 0 l 1,-0.0472 v 0 l 1,-0.0475 v 0 l 1,-0.0478 v 0 l 1,-0.048 v 0 l 1,-0.0483 v 0 l 1,-0.0486 v 0 l 1,-0.0489 v 0 l 1,-0.0492 v 0 l 1,-0.0495 v 0 l 1,-0.0498 v 0 l 1,-0.0501 v 0 l 1,-0.0504 v 0 l 1,-0.0507 v 0 l 1,-0.051 v 0 l 1,-0.0513 v 0 l 1,-0.0516 v 0 l 1,-0.0519 v 0 l 1,-0.0522 v 0 l 1,-0.0525 v 0 l 1,-0.0529 v 0 l 1,-0.0532 v 0 l 1,-0.0535 v 0 l 1,-0.0538 v 0 l 1,-0.0542 v 0 l 1,-0.0545 v 0 l 1,-0.0548 v 0 l 1,-0.0552 v 0 l 1,-0.0555 v 0 l 1,-0.0559 v 0 l 1,-0.0562 v 0 l 1,-0.0565 v 0 l 1,-0.0569 v 0 l 1,-0.0572 v 0 l 1,-0.0576 v 0 l 1,-0.058 v 0 l 1,-0.0583 v 0 l 1,-0.0587 v 0 l 1,-0.0591 v 0 l 1,-0.0594 v 0 l 1,-0.0598 v 0 l 1,-0.0602 v 0 l 1,-0.0606 v 0 l 1,-0.0609 v 0 l 1,-0.0613 v 0 l 1,-0.0617 v 0 l 1,-0.0621 v 0 l 1,-0.0625 v 0 l 1,-0.0629 v 0 l 1,-0.0633 v 0 l 1,-0.0637 v 0 l 1,-0.0641 v 0 l 1,-0.0645 v 0 l 1,-0.0649 v 0 l 1,-0.0654 v 0 l 1,-0.0658 v 0 l 1,-0.0662 v 0 l 1,-0.0666 v 0 l 1,-0.0671 v 0 l 1,-0.0675 v 0 l 1,-0.068 v 0 l 1,-0.0684 v 0 l 1,-0.0689 v 0 l 1,-0.0693 v 0 l 1,-0.0698 v 0 l 1,-0.0702 v 0 l 1,-0.0707 v 0 l 1,-0.0711 v 0 l 1,-0.0716 v 0 l 1,-0.0721 v 0 l 1,-0.0726 v 0 l 1,-0.0731 v 0 l 1,-0.0736 v 0 l 1,-0.0741 v 0 l 1,-0.0745 v 0 l 1,-0.0751 v 0 l 1,-0.0756 v 0 l 1,-0.0761 v 0 l 1,-0.0766 v 0 l 1,-0.0771 v 0 l 1,-0.0776 v 0 l 1,-0.0782 v 0 l 1,-0.0787 v 0 l 1,-0.0792 v 0 l 1,-0.0798 v 0 l 1,-0.0803 v 0 l 1,-0.0809 v 0 l 1,-0.0814 v 0 l 1,-0.082 v 0 l 1,-0.0826 v 0 l 1,-0.0832 v 0 l 1,-0.0837 v 0 l 1,-0.0843 v 0 l 1,-0.0849 v 0 l 1,-0.0855 v 0 l 1,-0.0861 v 0 l 1,-0.0867 v 0 l 1,-0.0873 v 0 l 1,-0.0879 v 0 l 1,-0.0885 v 0 l 1,-0.0892 v 0 l 1,-0.0898 v 0 l 1,-0.0904 v 0 l 1,-0.0911 v 0 l 1,-0.0918 v 0 l 1,-0.0924 v 0 l 1,-0.0931 v 0 l 1,-0.0937 v 0 l 1,-0.0944 v 0 l 1,-0.0951 v 0 l 1,-0.0958 v 0 l 1,-0.0965 v 0 l 1,-0.0972 v 0 l 1,-0.0979 v 0 l 1,-0.0986 v 0 l 1,-0.0993 v 0 l 1,-0.10004 v 0 l 1,-0.10079 v 0 l 1,-0.10152 v 0 l 1,-0.10228 v 0 l 1,-0.10303 v 0 l 1,-0.10379 v 0 l 1,-0.10457 v 0 l 1,-0.10534 v 0 l 1,-0.10613 v 0 l 1,-0.10692 v 0 l 1,-0.10772 v 0 l 1,-0.10853 v 0 l 1,-0.10935 v 0 l 1,-0.11017 v 0 l 1,-0.11101 v 0 l 1,-0.11184 v 0 l 1,-0.11269 v 0 l 1,-0.11355 v 0 l 1,-0.11441 v 0 l 1,-0.11529 v 0 l 1,-0.11617 v 0 l 1,-0.11706 v 0 l 1,-0.11796 v 0 l 1,-0.11887 v 0 l 1,-0.11978 v 0 l 1,-0.12071 v 0 l 1,-0.12165 v 0 l 1,-0.12259 v 0 l 1,-0.12355 v 0 l 1,-0.12451 v 0 l 1,-0.12549 v 0 l 1,-0.12647 v 0 l 1,-0.12746 v 0 l 1,-0.12846 v 0 l 1,-0.12948 v 0 l 1,-0.1305 v 0 l 1,-0.13153 v 0 l 1,-0.13258 v 0 l 1,-0.13364 v 0 l 1,-0.1347 v 0 l 1,-0.13577 v 0 l 1,-0.13687 v 0 l 1,-0.13796 v 0 l 1,-0.13907 v 0 l 1,-0.1402 v 0 l 1,-0.14133 v 0 l 1,-0.14247 v 0 l 1,-0.14363 v 0 l 1,-0.14479 v 0 l 1,-0.14598 v 0 l 1,-0.14717 v 0 l 1,-0.14837 v 0 l 1,-0.14959 v 0 l 1,-0.15083 v 0 l 1,-0.15206 v 0 l 1,-0.15333 v 0 l 1,-0.15459 v 0 l 1,-0.15587 v 0 l 1,-0.15717 v 0 l 1,-0.15848 v 0 l 1,-0.15981 v 0 l 1,-0.16114 v 0 l 1,-0.1625 v 0 l 1,-0.16386 v 0 l 1,-0.16524 v 0 l 1,-0.16664 v 0 l 1,-0.16805 v 0 l 1,-0.16947 v 0 l 1,-0.17092 v 0 l 1,-0.17237 v 0 l 1,-0.17385 v 0 l 1,-0.17533 v 0 l 1,-0.17684 v 0 l 1,-0.17835 v 0 l 1,-0.1799 v 0 l 1,-0.18145 v 0 l 1,-0.18302 v 0 l 1,-0.18461 v 0 l 1,-0.18621 v 0 l 1,-0.18783 v 0 l 1,-0.18948 v 0 l 1,-0.19113 v 0 l 1,-0.19282 v 0 l 1,-0.1945 v 0 l 1,-0.19622 v 0 l 1,-0.19796 v 0 l 1,-0.1997 v 0 l 1,-0.20148 v 0 l 1,-0.20327 v 0 l 1,-0.20508 v 0 l 1,-0.20691 v 0 l 1,-0.20876 v 0 l 1,-0.21064 v 0 l 1,-0.21252 v 0 l 1,-0.21445 v 0 l 1,-0.21638 v 0 l 1,-0.21833 v 0 l 1,-0.22032 v 0 l 1,-0.22232 v 0 l 1,-0.22435 v 0 l 1,-0.22639 v 0 l 1,-0.22846 v 0 l 1,-0.23056 v 0 l 1,-0.23268 v 0 l 1,-0.23482 v 0 l 1,-0.23699 v 0 l 1,-0.23918 v 0 l 1,-0.24139 v 0 l 1,-0.24364 v 0 l 1,-0.24591 v 0 l 1,-0.2482 v 0 l 1,-0.25052 v 0 l 1,-0.25287 v 0 l 1,-0.25524 v 0 l 1,-0.25765 v 0 l 1,-0.26007 v 0 l 1,-0.26254 v 0 l 1,-0.26502 v 0 l 1,-0.26753 v 0 l 1,-0.27008 v 0 l 1,-0.27265 v 0 l 1,-0.27526 v 0 l 1,-0.27789 v 0 l 1,-0.28055 v 0 l 1,-0.28325 v 0 l 1,-0.28598 v 0 l 1,-0.28874 v 0 l 1,-0.29153 v 0 l 1,-0.29436 v 0 l 1,-0.29722 v 0 l 1,-0.3001 v 0 l 1,-0.30303 v 0 l 1,-0.306 v 0 l 1,-0.30899 v 0 l 1,-0.31201 v 0 l 1,-0.31509 v 0 l 1,-0.31819 v 0 l 1,-0.32133 v 0 l 1,-0.3245 v 0 l 1,-0.32772 v 0 l 1,-0.33097 v 0 l 1,-0.33426 v 0 l 1,-0.33759 v 0 l 1,-0.34096 v 0 L 336,326.5 v 0 l 1,-0.34782 v 0 l 1,-0.35131 v 0 l 1,-0.35485 v 0 l 1,-0.35842 v 0 l 1,-0.36204 v 0 l 1,-0.36569 v 0 l 1,-0.36941 v 0 l 1,-0.37315 v 0 l 1,-0.37694 v 0 l 1,-0.38079 v 0 l 1,-0.38467 v 0 l 1,-0.38859 v 0 l 1,-0.39258 v 0 l 1,-0.3966 v 0 l 1,-0.40067 v 0 l 1,-0.40479 v 0 l 1,-0.40897 v 0 l 1,-0.41318 v 0 l 1,-0.41745 v 0 l 1,-0.42178 v 0 l 1,-0.42614 v 0 l 1,-0.43057 v 0 l 1,-0.43505 v 0 l 1,-0.43957 v 0 l 1,-0.44416 v 0 l 1,-0.4488 v 0 l 1,-0.45349 v 0 l 1,-0.45823 v 0 l 1,-0.46304 v 0 l 1,-0.4679 v 0 l 1,-0.47282 v 0 l 1,-0.47779 v 0 l 1,-0.48283 v 0 l 1,-0.48792 v 0 l 1,-0.49307 v 0 l 1,-0.49828 v 0 l 1,-0.50355 v 0 l 1,-0.50889 v 0 l 1,-0.51428 v 0 l 1,-0.51974 v 0 l 1,-0.52526 v 0 l 1,-0.53084 v 0 l 1,-0.53649 v 0 l 1,-0.54221 v 0 l 1,-0.54798 v 0 l 1,-0.55382 v 0 l 1,-0.55973 v 0 l 1,-0.56571 v 0 l 1,-0.57174 v 0 l 1,-0.57786 v 0 l 1,-0.58404 v 0 l 1,-0.59028 v 0 l 1,-0.59659 v 0 l 1,-0.60298 v 0 l 1,-0.60944 v 0 l 1,-0.61595 v 0 l 1,-0.62255 v 0 l 1,-0.62921 v 0 l 1,-0.63595 v 0 l 1,-0.64276 v 0 l 1,-0.64963 v 0 l 1,-0.65659 v 0 l 1,-0.6636 v 0 l 1,-0.6707 v 0 l 1,-0.67786 v 0 l 1,-0.68511 v 0 l 1,-0.69241 v 0 l 1,-0.6998 v 0 l 1,-0.70725 v 0 l 1,-0.71478 v 0 l 1,-0.72239 v 0 l 1,-0.73005 v 0 l 1,-0.7378 v 0 l 1,-0.74562 v 0 l 1,-0.7535 v 0 l 1,-0.76146 v 0 l 1,-0.7695 v 0 l 1,-0.77759 v 0 l 1,-0.78576 v 0 l 1,-0.794 v 0 l 1,-0.80231 v 0 l 1,-0.81068 v 0 l 1,-0.81913 v 0 l 1,-0.82763 v 0 l 1,-0.8362 v 0 l 1,-0.84484 v 0 l 1,-0.85354 v 0 l 1,-0.86229 v 0 l 1,-0.87112 v 0 l 1,-0.88 v 0 l 1,-0.88893 v 0 l 1,-0.89792 v 0 l 1,-0.90696 v 0 l 1,-0.91607 v 0 l 1,-0.9252 v 0 l 1,-0.9344 v 0 l 1,-0.94363 v 0 l 1,-0.95292 v 0 l 1,-0.96223 v 0 l 1,-0.97159 v 0 l 1,-0.98098 v 0 l 1,-0.9904 v 0 l 1,-0.99985 v 0 l 1,-1.00933 v 0 l 1,-1.01882 v 0 l 1,-1.02833 v 0 l 1,-1.03785 v 0 l 1,-1.04739 v 0 l 1,-1.05693 v 0 l 1,-1.06647 v 0 l 1,-1.076 v 0 l 1,-1.08552 v 0 l 1,-1.09504 v 0 l 1,-1.10452 v 0 l 1,-1.11398 v 0 l 1,-1.12342 v 0 l 1,-1.13281 v 0 l 1,-1.14216 v 0 l 1,-1.15145 v 0 l 1,-1.1607 v 0 l 1,-1.16987 v 0 l 1,-1.17897 v 0 l 1,-1.18799 v 0 l 1,-1.19693 v 0 l 1,-1.20576 v 0 l 1,-1.21449 v 0 l 1,-1.22311 v 0 l 1,-1.23161 v 0 l 1,-1.23997 v 0 l 1,-1.24819 v 0 l 1,-1.25625 v 0 l 1,-1.26416 v 0 l 1,-1.27189 v 0 l 1,-1.27944 v 0 l 1,-1.28679 v 0 l 1,-1.29394 v 0 l 1,-1.30086 v 0 l 1,-1.30756 v 0 l 1,-1.31401 v 0 l 1,-1.3202 v 0 l 1,-1.32614 v 0 l 1,-1.33177 v 0 l 1,-1.33713 v 0 l 1,-1.34216 v 0 l 1,-1.34689 v 0 l 1,-1.35125 v 0 l 1,-1.35529 v 0 l 1,-1.35895 v 0 l 1,-1.36222 v 0 l 1,-1.3651 v 0 l 1,-1.36757 v 0 l 1,-1.36962 v 0 l 1,-1.37121 v 0 l 1,-1.37235 v 0 l 1,-1.37301 v 0 l 1,-1.3732 v 0 l 1,-1.37286 v 0 l 1,-1.37201 v 0 l 1,-1.37063 v 0 l 1,-1.36868 v 0 l 1,-1.36618 v 0 l 1,-1.36308 v 0 l 1,-1.3594 v 0 l 1,-1.35509 v 0 l 1,-1.35016 v 0 l 1,-1.34458 v 0 l 1,-1.33835 v 0 l 1,-1.33145 v 0 l 1,-1.32386 v 0 l 1,-1.31557 v 0 l 1,-1.30658 v 0 l 1,-1.29687 v 0 l 1,-1.28642 v 0 l 1,-1.27522 v 0 l 1,-1.26329 v 0 l 1,-1.25057 v 0 l 1,-1.2371 v 0 l 1,-1.22284 v 0 l 1,-1.2078 v 0 l 1,-1.19197 v 0 l 1,-1.17534 v 0 l 1,-1.15792 v 0 l 1,-1.13968 v 0 l 1,-1.12066 v 0 l 1,-1.10083 v 0 l 1,-1.08018 v 0 l 1,-1.05875 v 0 l 1,-1.03652 v 0 l 1,-1.01348 v 0 l 1,-0.98967 v 0 l 1,-0.96508 v 0 l 1,-0.93971 v 0 l 1,-0.91358 v 0 l 1,-0.88671 v 0 l 1,-0.85909 v 0 l 1,-0.83075 v 0 l 1,-0.80172 v 0 l 1,-0.77197 v 0 l 1,-0.74158 v 0 l 1,-0.71051 v 0 l 1,-0.67883 v 0 l 1,-0.64652 v 0 l 1,-0.61365 v 0 l 1,-0.58021 v 0 l 1,-0.54623 v 0 l 1,-0.51175 v 0 l 1,-0.47679 v 0 l 1,-0.44139 v 0 l 1,-0.40557 v 0 l 1,-0.36936 v 0 l 1,-0.3328 v 0 l 1,-0.29593 v 0 l 1,-0.25876 v 0 l 1,-0.22135 v 0 l 1,-0.18372 v 0 l 1,-0.14591 v 0 l 1,-0.10797 v 0 l 1,-0.0699 v 0 l 1,-0.0318 v 0.006 l 1,-0.008 v 0.008 l 1,0.0445 v 0 l 1,0.0826 v 0 l 1,0.12063 v 0 l 1,0.15853 v 0 l 1,0.19629 v 0 l 1,0.23384 v 0 l 1,0.27118 v 0 l 1,0.30825 v 0 l 1,0.34502 v 0 l 1,0.38147 v 0 l 1,0.41756 v 0 l 1,0.45323 v 0 l 1,0.4885 v 0 l 1,0.5233 v 0 l 1,0.55762 v 0 l 1,0.59141 v 0 l 1,0.62467 v 0 l 1,0.65736 v 0 l 1,0.68946 v 0 l 1,0.72094 v 0 l 1,0.75178 v 0 l 1,0.78196 v 0 l 1,0.81147 v 0 l 1,0.84028 v 0 l 1,0.86838 v 0 l 1,0.89575 v 0 l 1,0.92237 v 0 l 1,0.94825 v 0 l 1,0.97336 v 0 l 1,0.9977 v 0 l 1,1.02125 v 0 l 1,1.04401 v 0 l 1,1.06599 v 0 l 1,1.08715 v 0 l 1,1.10753 v 0 l 1,1.12709 v 0 l 1,1.14585 v 0 l 1,1.16382 v 0 l 1,1.18097 v 0 l 1,1.19733 v 0 l 1,1.2129 v 0 l 1,1.22768 v 0 l 1,1.24168 v 0 l 1,1.25489 v 0 l 1,1.26735 v 0 l 1,1.27904 v 0 l 1,1.28998 v 0 l 1,1.30019 v 0 l 1,1.30966 v 0 l 1,1.31841 v 0 l 1,1.32647 v 0 l 1,1.33382 v 0 l 1,1.3405 v 0 l 1,1.34652 v 0 l 1,1.35187 v 0 l 1,1.35659 v 0 l 1,1.3607 v 0 l 1,1.36418 v 0 l 1,1.36707 v 0 l 1,1.3694 v 0 l 1,1.37115 v 0 l 1,1.37235 v 0 l 1,1.37303 v 0 l 1,1.37319 v 0 l 1,1.37285 v 0 l 1,1.37202 v 0 l 1,1.37073 v 0 l 1,1.36898 v 0 l 1,1.3668 v 0 l 1,1.36419 v 0 l 1,1.36117 v 0 l 1,1.35777 v 0 l 1,1.35398 v 0 l 1,1.34984 v 0 l 1,1.34534 v 0 l 1,1.34053 v 0 l 1,1.33537 v 0 l 1,1.32993 v 0 l 1,1.32419 v 0 l 1,1.31817 v 0 l 1,1.31188 v 0 l 1,1.30535 v 0 l 1,1.29858 v 0 l 1,1.29158 v 0 l 1,1.28436 v 0 l 1,1.27695 v 0 l 1,1.26933 v 0 l 1,1.26155 v 0 l 1,1.25358 v 0 l 1,1.24546 v 0 l 1,1.2372 v 0 l 1,1.22879 v 0 l 1,1.22025 v 0 l 1,1.2116 v 0 l 1,1.20283 v 0 l 1,1.19396 v 0 l 1,1.18499 v 0 l 1,1.17595 v 0 l 1,1.16681 v 0 l 1,1.15763 v 0 l 1,1.14836 v 0 l 1,1.13905 v 0 l 1,1.12968 v 0 l 1,1.12027 v 0 l 1,1.11084 v 0 l 1,1.10136 v 0 l 1,1.09187 v 0 l 1,1.08235 v 0 l 1,1.07282 v 0 l 1,1.06329 v 0 l 1,1.05375 v 0 l 1,1.04421 v 0 l 1,1.03468 v 0 l 1,1.02516 v 0 l 1,1.01565 v 0 l 1,1.00616 v 0 l 1,0.9967 v 0 l 1,0.98726 v 0 l 1,0.97784 v 0 l 1,0.96847 v 0 l 1,0.95912 v 0 l 1,0.94982 v 0 l 1,0.94055 v 0 l 1,0.93133 v 0 l 1,0.92215 v 0 l 1,0.91303 v 0 l 1,0.90394 v 0 l 1,0.89492 v 0 l 1,0.88595 v 0 l 1,0.87703 v 0 l 1,0.86817 v 0 l 1,0.85937 v 0 l 1,0.85063 v 0 l 1,0.84195 v 0 l 1,0.83334 v 0 l 1,0.82479 v 0 l 1,0.8163 v 0 l 1,0.80788 v 0 l 1,0.79953 v 0 l 1,0.79125 v 0 l 1,0.78303 v 0 l 1,0.77489 v 0 l 1,0.76681 v 0 l 1,0.7588 v 0 l 1,0.75086 v 0 l 1,0.74301 v 0 l 1,0.73521 v 0 l 1,0.72749 v 0 l 1,0.71984 v 0 l 1,0.71226 v 0 l 1,0.70476 v 0 l 1,0.69733 v 0 l 1,0.68997 v 0 l 1,0.68268 v 0 l 1,0.67547 v 0 l 1,0.66833 v 0 l 1,0.66125 v 0 l 1,0.65426 v 0 l 1,0.64733 v 0 l 1,0.64048 v 0 l 1,0.6337 v 0 l 1,0.62698 v 0 l 1,0.62035 v 0 l 1,0.61377 v 0 l 1,0.60727 v 0 l 1,0.60085 v 0 l 1,0.59448 v 0 l 1,0.58819 v 0 l 1,0.58197 v 0 l 1,0.57581 v 0 l 1,0.56973 v 0 l 1,0.56371 v 0 l 1,0.55775 v 0 l 1,0.55187 v 0 l 1,0.54605 v 0 l 1,0.54029 v 0 l 1,0.5346 v 0 l 1,0.52897 v 0 l 1,0.52342 v 0 l 1,0.51791 v 0 l 1,0.51248 v 0 l 1,0.5071 v 0 l 1,0.50179 v 0 l 1,0.49654 v 0 l 1,0.49134 v 0 l 1,0.48622 v 0 l 1,0.48114 v 0 l 1,0.47612 v 0 l 1,0.47118 v 0 l 1,0.46627 v 0 l 1,0.46143 v 0 l 1,0.45665 v 0 l 1,0.45192 v 0 l 1,0.44724 v 0 l 1,0.44263 v 0 l 1,0.43806 v 0 l 1,0.43355 v 0 l 1,0.42909 v 0 l 1,0.42468 v 0 l 1,0.42033 v 0 l 1,0.41602 v 0 l 1,0.41177 v 0 l 1,0.40757 v 0 l 1,0.40341 v 0 l 1,0.39931 v 0 l 1,0.39526 v 0 l 1,0.39124 v 0 l 1,0.38728 v 0 l 1,0.38337 v 0 l 1,0.3795 v 0 l 1,0.37567 v 0 l 1,0.3719 v 0 l 1,0.36816 v 0 l 1,0.36448 v 0 l 1,0.36083 v 0 l 1,0.35722 v 0 l 1,0.35366 v 0 l 1,0.35015 v 0 l 1,0.34667 v 0 l 1,0.34323 v 0 l 1,0.33983 v 0 l 1,0.33648 v 0 l 1,0.33316 v 0 l 1,0.32988 v 0 l 1,0.32664 v 0 l 1,0.32344 v 0 l 1,0.32028 v 0 l 1,0.31715 v 0 l 1,0.31406 v 0 l 1,0.31101 v 0 l 1,0.30798 v 0 l 1,0.305 v 0 l 1,0.30206 v 0 l 1,0.29914 v 0 l 1,0.29625 v 0 l 1,0.29342 v 0 l 1,0.29059 v 0 l 1,0.28782 v 0 l 1,0.28507 v 0 l 1,0.28235 v 0 l 1,0.27966 v 0 l 1,0.27701 v 0 l 1,0.27438 v 0 l 1,0.27179 v 0 l 1,0.26923 v 0 l 1,0.26669 v 0 l 1,0.26419 v 0 l 1,0.26171 v 0 l 1,0.25926 v 0 l 1,0.25684 v 0 l 1,0.25445 v 0 l 1,0.25208 v 0 l 1,0.24975 v 0 l 1,0.24743 v 0 l 1,0.24515 v 0 l 1,0.24289 v 0 l 1,0.24065 v 0 l 1,0.23845 v 0 l 1,0.23626 v 0 l 1,0.23411 v 0 l 1,0.23196 v 0 l 1,0.22986 v 0 l 1,0.22777 v 0 l 1,0.22571 v 0 l 1,0.22367 v 0 l 1,0.22165 v 0 l 1,0.21965 v 0 l 1,0.21769 v 0 l 1,0.21573 v 0 l 1,0.2138 v 0 l 1,0.2119 v 0 l 1,0.21 v 0 l 1,0.20815 v 0 l 1,0.20629 v 0 l 1,0.20448 v 0 l 1,0.20267 v 0 l 1,0.20088 v 0 l 1,0.19912 v 0 l 1,0.19738 v 0 l 1,0.19564 v 0 l 1,0.19394 v 0 l 1,0.19225 v 0 l 1,0.19058 v 0 l 1,0.18893 v 0 l 1,0.18729 v 0 l 1,0.18568 v 0 l 1,0.18407 v 0 l 1,0.1825 v 0 l 1,0.18093 v 0 l 1,0.17938 v 0 l 1,0.17785 v 0 l 1,0.17633 v 0 l 1,0.17484 v 0 l 1,0.17335 v 0 l 1,0.17189 v 0 l 1,0.17043 v 0 l 1,0.169 v 0 l 1,0.16757 v 0 l 1,0.16618 v 0 l 1,0.16478 v 0 l 1,0.1634 v 0 l 1,0.16204 v 0 l 1,0.1607 v 0 l 1,0.15936 v 0 l 1,0.15804 v 0 l 1,0.15674 v 0 l 1,0.15545 v 0 l 1,0.15416 v 0 l 1,0.1529 v 0 l 1,0.15165 v 0 l 1,0.15042 v 0 l 1,0.14918 v 0 l 1,0.14797 v 0 l 1,0.14677 v 0 l 1,0.14558 v 0 l 1,0.14441 v 0 l 1,0.14324 v 0 l 1,0.14209 v 0 l 1,0.14095 v 0 l 1,0.13982 v 0 l 1,0.1387 v 0 l 1,0.13759 v 0 l 1,0.1365 v 0 l 1,0.13542 v 0 l 1,0.13434 v 0 l 1,0.13329 v 0 l 1,0.13223 v 0 l 1,0.13119 v 0 l 1,0.13015 v 0 l 1,0.12914 v 0 l 1,0.12813 v 0 l 1,0.12713 v 0 l 1,0.12614 v 0 l 1,0.12516 v 0 l 1,0.12419 v 0 l 1,0.12323 v 0 l 1,0.12227 v 0 l 1,0.12134 v 0 l 1,0.1204 v 0 l 1,0.11948 v 0 l 1,0.11856 v 0 l 1,0.11766 v 0 l 1,0.11676 v 0 l 1,0.11588 v 0 l 1,0.11499 v 0 l 1,0.11413 v 0 l 1,0.11326 v 0 l 1,0.11241 v 0 l 1,0.11156 v 0 l 1,0.11072 v 0 l 1,0.1099 v 0 l 1,0.10907 v 0 l 1,0.10826 v 0 l 1,0.10746 v 0 l 1,0.10665 v 0 l 1,0.10587 v 0 l 1,0.10508 v 0 l 1,0.10431 v 0 l 1,0.10354 v 0 l 1,0.10278 v 0 l 1,0.10202 v 0 l 1,0.10128 v 0 l 1,0.10054 v 0 l 1,0.0998 v 0 l 1,0.0991 v 0 l 1,0.0984 v 0 l 1,0.0977 v 0 l 1,0.0969 v 0 l 1,0.0962 v 0 l 1,0.0956 v 0 l 1,0.0949 v 0 l 1,0.0942 v 0 l 1,0.0935 v 0 l 1,0.0928 v 0 l 1,0.0922 v 0 l 1,0.0915 v 0 l 1,0.0909 v 0 l 1,0.0902 v 0 l 1,0.0896 v 0 l 1,0.089 v 0 l 1,0.0883 v 0 l 1,0.0877 v 0 l 1,0.0871 v 0 l 1,0.0865 v 0 l 1,0.0859 v 0 l 1,0.0853 v 0 l 1,0.0847 v 0 l 1,0.0841 v 0 l 1,0.0835 v 0 l 1,0.083 v 0 l 1,0.0824 v 0 l 1,0.0818 v 0 l 1,0.0813 v 0 l 1,0.0807 v 0 l 1,0.0802 v 0 l 1,0.0796 v 0 l 1,0.0791 v 0 l 1,0.0785 v 0 l 1,0.078 v 0 l 1,0.0775 v 0 l 1,0.0769 v 0 l 1,0.0764 v 0 l 1,0.0759 v 0 l 1,0.0754 v 0 l 1,0.0749 v 0 l 1,0.0744 v 0 l 1,0.0739 v 0 l 1,0.0734 v 0 l 1,0.0729 v 0 l 1,0.0724 v 0 l 1,0.072 v 0 l 1,0.0715 v 0 l 1,0.071 v 0 l 1,0.0705 v 0 l 1,0.0701 v 0 l 1,0.0696 v 0 l 1,0.0692 v 0 l 1,0.0687 v 0 l 1,0.0682 v 0 l 1,0.0678 v 0 l 1,0.0674 v 0 l 1,0.0669 v 0 l 1,0.0665 v 0 l 1,0.0661 v 0 l 1,0.0657 v 0 l 1,0.0652 v 0 l 1,0.0648 v 0 l 1,0.0644 v 0 l 1,0.064 v 0 l 1,0.0636 v 0 l 1,0.0632 v 0 l 1,0.0628 v 0 l 1,0.0624 v 0 l 1,0.062 v 0 l 1,0.0616 v 0 l 1,0.0612 v 0 l 1,0.0608 v 0 l 1,0.0604 v 0 l 1,0.06 v 0 l 1,0.0597 v 0 l 1,0.0593 v 0 l 1,0.0589 v 0 l 1,0.0586 v 0 l 1,0.0582 v 0 l 1,0.0578 v 0 l 1,0.0575 v 0 l 1,0.0571 v 0 l 1,0.0568 v 0 l 1,0.0564 v 0 l 1,0.0561 v 0 l 1,0.0557 v 0 l 1,0.0554 v 0 l 1,0.055 v 0 l 1,0.0547 v 0 l 1,0.0544 v 0 l 1,0.054 v 0 l 1,0.0537 v 0 l 1,0.0534 v 0 l 1,0.0531 v 0 l 1,0.0528 v 0 l 1,0.0524 v 0 l 1,0.0521 v 0 l 1,0.0518 v 0 l 1,0.0515 v 0 l 1,0.0512 v 0 l 1,0.0509 v 0 l 1,0.0506 v 0 l 1,0.0503 v 0 l 1,0.05 v 0 l 1,0.0497 v 0 l 1,0.0494 v 0 l 1,0.0491 v 0 l 1,0.0488 v 0 l 1,0.0485 v 0 l 1,0.0482 v 0 l 1,0.048 v 0 l 1,0.0477 v 0 l 1,0.0474 v 0 l 1,0.0471 v 0 l 1,0.0469 v 0 l 1,0.0466 v 0 l 1,0.0463 v 0 l 1,0.046 v 0 l 1,0.0458 v 0 l 1,0.0455 v 0 l 1,0.0453 v 0 l 1,0.045 v 0 l 1,0.0447 v 0 l 1,0.0445 v 0 l 1,0.0442 v 0 l 1,0.044 v 0 l 1,0.0437 v 0 l 1,0.0435 v 0 l 1,0.0432 v 0 l 1,0.043 v 0 l 1,0.0427 v 0 l 1,0.0425 v 0 l 1,0.0423 v 0 l 1,0.042 v 0 l 1,0.0418 v 0 l 1,0.0415 v 0 l 1,0.0413 v 0 l 1,0.0411 v 0 l 1,0.0409 v 0 l 1,0.0406 v 0 l 1,0.0404 v 0 l 1,0.0402 v 0 l 1,0.04 v 0 l 1,0.0397 v 0 l 1,0.0395 v 0 l 1,0.0393 v 0 l 1,0.0391 v 0 l 1,0.0389 v 0 l 1,0.0387 v 0 l 1,0.0384 v 0 l 1,0.0382 v 0 l 1,0.038 v 0 l 1,0.0378 v 0 l 1,0.0376 v 0 l 1,0.0374 v 0 l 1,0.0372 v 0 l 1,0.037 v 0 l 1,0.0368 v 0 l 1,0.0366 v 0 l 1,0.0364 v 0 l 1,0.0362 v 0 l 1,0.036 v 0 l 1,0.0358 v 0 l 1,0.0356 v 0 l 1,0.0354 v 0 l 1,0.0353 v 0 l 1,0.0351 v 0 l 1,0.0349 v 0 l 1,0.0347 v 0 l 1,0.0345 v 0 l 1,0.0343 v 0 l 1,0.0342 v 0 l 1,0.034 v 0 l 1,0.0338 v 0 l 1,0.0336 v 0 l 1,0.0334 v 0 l 1,0.0333 v 0 l 1,0.0331 v 0 l 1,0.0329 v 0 l 1,0.0327 v 0 l 1,0.0326 v 0 l 1,0.0324 v 0 l 1,0.0322 v 0 l 1,0.0321 v 0 l 1,0.0319 v 0 l 1,0.0317 v 0 l 1,0.0316 v 0 l 1,0.0314 v 0 l 1,0.0313 v 0 l 1,0.0311 v 0 l 1,0.031 v 0 l 1,0.0308 v 0 l 1,0.0306 v 0 l 1,0.0305 v 0 l 1,0.0303 v 0 l 1,0.0302 v 0 l 1,0.03 v 0 l 1,0.0299 v 0 l 1,0.0297 v 0 l 1,0.0296 v 0 l 1,0.0294 v 0 l 1,0.0293 v 0 l 1,0.0291 v 0 l 1,0.029 v 0 l 1,0.0288 v 0 l 1,0.0287 v 0 l 1,0.0285 v 0 l 1,0.0284 v 0 l 1,0.0283 v 0 l 1,0.0281 v 0 l 1,0.028 v 0 l 1,0.0278 v 0 l 1,0.0277 v 0 l 1,0.0276 v 0 l 1,0.0274 v 0 l 1,0.0273 v 0 l 1,0.0272 v 0 l 1,0.027 v 0 l 1,0.0269 v 0 l 1,0.0268 v 0 l 1,0.0266 v 0 l 1,0.0265 v 0 l 1,0.0264 v 0 l 1,0.0263 v 0 l 1,0.0261 v 0 l 1,0.026 v 0 l 1,0.0259 v 0 l 1,0.0258 v 0 l 1,0.0256 v 0 l 1,0.0255 v 0 l 1,0.0254 v 0 l 1,0.0252 v 0 l 1,0.0251 v 0 l 1,0.025 v 0 l 1,0.0249 v 0 l 1,0.0248 v 0 l 1,0.0247 v 0 l 1,0.0245 v 0 l 1,0.0244 v 0 l 1,0.0243 v 0 l 1,0.0242 v 0 l 1,0.0241 v 0 l 1,0.024 v 0 l 1,0.0239 v 0 l 1,0.0237 v 0 l 1,0.0236 v 0 l 1,0.0235 v 0 l 1,0.0234 v 0 l 1,0.0233 v 0 l 1,0.0232 v 0 l 1,0.0231"
     stroke-opacity="1"
     stroke-linejoin="round"
     stroke-miterlimit="10"
     stroke-width="3.5"
     stroke-dasharray="11.5, 8"
     id="path241"
     clip-path="url(#clipPath797)" />
  <text
     x="576.15222"
     y="120.46003"
     id="text243"
     style="font-style:italic;font-variant:normal;font-weight:bold;font-stretch:normal;font-size:37.3333px;font-family:'Crimson Text';-inkscape-font-specification:'Crimson Text, Bold Italic';font-variant-ligatures:normal;font-variant-caps:normal;font-variant-numeric:normal;font-variant-east-asian:normal;dominant-baseline:alphabetic;text-anchor:start;fill:#ff0000;fill-opacity:1;stroke:none">f '(x)</text>
</svg>
